<svg width="24" height="17" viewBox="0 0 24 17" fill="none" xmlns="http://www.w3.org/2000/svg">
<g clip-path="url(#clip0_144_2062)">
<path d="M22.6002 10.103C22.7002 9.84301 22.7802 9.60301 22.7802 9.29301C22.7702 9.19301 22.7302 8.71301 22.7402 8.72301C22.7402 8.66301 22.7202 8.61301 22.7102 8.57301C22.4402 8.50301 22.1702 8.41301 21.9102 8.31301C21.7402 8.24301 21.5802 8.17301 21.4202 8.08301C21.2102 8.28301 21.0102 8.48301 20.7602 8.65301C20.5302 8.81301 20.3102 9.00301 20.1202 9.20301C19.8002 9.52301 19.4802 9.85301 19.0802 10.103C18.9902 10.163 18.9002 10.233 18.8502 10.313C18.6802 10.583 18.4402 10.773 18.1802 10.963C17.9902 11.103 17.8802 11.363 17.6902 11.493C17.0702 11.923 16.6002 12.483 16.0502 12.983C15.8302 13.183 15.6202 13.413 15.4002 13.623C15.3702 13.683 15.3402 13.743 15.3002 13.803C15.1202 14.073 14.8102 14.443 14.5902 14.783C14.6902 14.783 14.7902 14.723 14.8702 14.653C14.9802 14.563 15.0802 14.463 15.1802 14.373C15.3102 14.263 15.3902 14.093 15.5902 14.063C15.5902 14.093 15.6202 14.133 15.6002 14.143C15.4302 14.403 15.2602 14.653 15.0802 14.913C15.0602 14.943 15.0402 14.973 15.0102 14.983C14.9502 15.023 14.8902 15.053 14.8302 15.093C14.7202 15.173 14.5602 15.243 14.5102 15.353C14.4902 15.383 14.4702 15.403 14.4502 15.423C14.4402 15.543 14.4202 15.653 14.4102 15.773C14.5002 15.973 14.6402 16.153 14.8002 16.293C14.8502 16.333 15.2402 16.543 15.2702 16.643H15.3002C15.4302 16.563 15.5802 16.523 15.7202 16.493C15.8002 16.413 15.8702 16.323 15.9202 16.223C15.9602 16.143 16.0702 16.083 16.1602 16.023C16.4302 15.833 16.6402 15.613 16.7802 15.323C16.8802 15.113 17.1002 15.053 17.2902 14.973C17.4702 14.973 17.6102 14.893 17.7402 14.763C18.3102 14.193 18.8902 13.633 19.4702 13.063C19.5902 12.943 19.7002 12.803 19.8002 12.693C19.7702 12.573 19.7502 12.473 19.7302 12.363C19.8602 12.273 20.0402 12.203 20.1402 12.083C20.4302 11.713 20.8002 11.463 21.2102 11.253C21.3702 11.173 21.5002 11.053 21.6502 10.953C22.0002 10.713 22.2602 10.363 22.5802 10.093L22.6002 10.103ZM16.4202 14.313C16.4202 14.313 16.3402 14.303 16.3402 14.293C16.3402 14.243 16.3502 14.193 16.3602 14.143C16.3902 14.143 16.4302 14.143 16.4302 14.153C16.4302 14.203 16.4202 14.263 16.4102 14.313H16.4202ZM16.6802 13.533C16.5902 13.583 16.4902 13.623 16.3902 13.643C16.3302 13.643 16.2402 13.623 16.2202 13.573C16.2002 13.533 16.2402 13.453 16.2702 13.393C16.2802 13.363 16.3202 13.353 16.3502 13.323C16.4302 13.253 16.5002 13.173 16.5902 13.123C16.6302 13.103 16.7302 13.143 16.7502 13.173C16.8302 13.303 16.7902 13.453 16.6802 13.513V13.533ZM17.5502 12.983C17.3302 12.923 17.1402 12.823 16.9802 12.673C16.9602 12.653 16.9602 12.613 16.9602 12.593C16.9602 12.563 16.9802 12.523 17.0002 12.523C17.2602 12.443 17.5202 12.373 17.7802 12.313C17.8102 12.313 17.9002 12.393 17.8902 12.423C17.8202 12.633 17.7802 12.853 17.5502 12.993V12.983ZM17.9802 14.223C17.9802 14.223 17.8802 14.223 17.8302 14.213C17.8202 14.213 17.8202 14.143 17.8302 14.143C17.8802 14.123 17.9402 14.113 17.9902 14.103C18.0402 14.143 18.0502 14.193 17.9902 14.233L17.9802 14.223ZM18.6402 11.903C18.5902 11.993 18.4902 12.003 18.4002 11.993C18.4402 11.923 18.4802 11.843 18.5302 11.773C18.5302 11.753 18.6102 11.753 18.6102 11.753C18.6202 11.803 18.6602 11.863 18.6402 11.903ZM19.4102 11.203C19.3302 11.243 19.2702 11.213 19.2602 11.133C19.2602 11.083 19.3002 11.023 19.3302 10.963C19.3902 10.963 19.4702 10.943 19.5102 10.963C19.5802 11.003 19.5202 11.133 19.4002 11.193L19.4102 11.203ZM20.1102 10.853C20.1102 10.853 20.0402 10.833 20.0402 10.823C20.0402 10.773 20.0402 10.713 20.0402 10.663C20.0902 10.713 20.1602 10.753 20.1202 10.853H20.1102ZM20.2002 10.303C20.1702 10.413 20.0902 10.513 20.0302 10.613C19.9902 10.443 19.9502 10.273 19.9302 10.093C19.9302 10.073 20.0202 10.023 20.0702 9.99301C20.0902 9.99301 20.1402 10.013 20.1502 10.033C20.1802 10.113 20.2202 10.213 20.2002 10.283V10.303ZM21.3602 9.44301C21.3602 9.44301 21.2402 9.49301 21.1802 9.48301C21.0802 9.48301 21.0802 9.36301 21.1702 9.26301C21.2302 9.24301 21.2902 9.20301 21.3402 9.20301C21.4202 9.20301 21.4302 9.37301 21.3602 9.43301V9.44301Z" fill="#111112"/>
<path d="M14.8598 15.8231L14.9198 15.7831L14.8398 15.7531L14.8598 15.8331V15.8231Z" fill="#111112"/>
<path d="M23.0099 8.40302C22.8399 8.14302 22.6399 7.90302 22.4899 7.63302C22.2899 7.26302 22.0699 6.95302 21.6599 6.75302C21.2299 6.54302 20.9299 6.13302 20.4699 5.92302C20.3799 5.88302 20.3199 5.78302 20.2499 5.70302C20.1599 5.60302 20.0999 5.45302 19.9799 5.39302C19.5799 5.16302 19.2999 4.81302 18.9699 4.51302C18.6399 4.21302 18.2999 3.92302 18.0399 3.55302C17.9799 3.47302 17.8999 3.39302 17.8099 3.35302C17.4799 3.20302 17.2699 2.94302 17.0799 2.64302C16.9699 2.47302 16.8099 2.33302 16.6699 2.18302C16.2299 1.74302 15.7799 1.31302 15.3199 0.87302C15.2699 0.85302 15.2299 0.84302 15.1799 0.82302C15.1299 0.80302 15.0799 0.79302 15.0299 0.78302C14.9299 0.85302 14.8099 0.89302 14.6699 0.91302C14.6599 0.93302 14.6399 0.96302 14.6299 0.98302C14.7099 1.04302 14.7699 1.10302 14.8599 1.13302C14.8899 1.13302 14.8899 1.24302 14.8799 1.30302C14.8799 1.32302 14.8299 1.34302 14.7999 1.35302C14.6499 1.37302 14.4999 1.43302 14.3399 1.41302C14.2299 1.57302 14.1099 1.72302 13.9899 1.87302C13.9499 2.08302 13.9399 2.29302 13.9899 2.49302C14.0699 2.57302 14.1399 2.65302 14.2199 2.73302C14.3699 2.89302 14.5799 2.92302 14.7899 2.97302C14.7999 3.00302 14.8299 3.04302 14.8199 3.07302C14.7399 3.47302 14.9299 3.74302 15.2499 3.93302C15.3999 4.02302 15.5799 4.08302 15.6899 4.20302C16.0199 4.59302 16.2999 5.03302 16.7499 5.31302C17.0599 5.87302 17.6099 6.20302 18.0599 6.62302C18.1599 6.71302 18.2899 6.77302 18.3899 6.87302C18.5799 7.07302 18.7599 7.28302 18.9399 7.49302C19.1199 7.70302 19.2999 7.90302 19.4599 8.08302C19.8699 8.27302 20.2499 8.45302 20.5999 8.61302C20.6699 8.81302 20.6999 8.99302 20.7799 9.13302C20.8499 9.24302 21.0099 9.29302 21.0799 9.40302C21.1699 9.54302 21.1999 9.72302 21.2699 9.90302C21.5399 10.023 21.8199 10.153 22.0899 10.273C22.3599 9.82302 22.6799 9.39302 23.0299 9.01302C23.0199 8.80302 23.0099 8.60302 22.9999 8.41302L23.0099 8.40302ZM21.7199 7.93302C21.7199 7.93302 21.6499 7.93302 21.6299 7.91302C21.4999 7.82302 21.3699 7.71302 21.4199 7.52302C21.4199 7.49302 21.4599 7.46302 21.4799 7.45302C21.5099 7.44302 21.5499 7.43302 21.5699 7.45302C21.7099 7.55302 21.7699 7.69302 21.7699 7.86302C21.7699 7.88302 21.7399 7.91302 21.7199 7.93302Z" fill="#111112"/>
<path d="M22.88 8.553C22.73 8.413 22.57 8.283 22.42 8.153C22.12 8.093 21.81 8.063 21.51 7.973C21.1 7.853 20.73 7.783 20.3 7.933C19.85 8.083 19.33 8.003 18.87 8.173C18.78 8.203 18.67 8.173 18.56 8.173C18.42 8.173 18.28 8.103 18.15 8.143C17.71 8.263 17.26 8.203 16.81 8.223C16.36 8.243 15.91 8.273 15.47 8.193C15.37 8.173 15.26 8.183 15.16 8.213C14.82 8.333 14.48 8.303 14.14 8.213C13.94 8.173 13.73 8.183 13.52 8.183C12 8.173 10.47 8.303 8.95 8.103C8.02 8.153 7.08 8.083 6.15 8.103C4.48 8.163 2.82 8.183 1.15 8.213C0.88 8.213 0.62 8.243 0.35 8.303C0.34 8.333 0.33 8.353 0.31 8.383C0.28 8.433 0.24 8.473 0.22 8.523C0.17 8.623 0.09 8.703 0.02 8.783C0.05 9.033 0.04 9.283 0 9.533C0.09 9.623 0.19 9.713 0.29 9.793C0.44 9.843 0.6 9.893 0.75 9.953C1.21 9.863 1.68 9.903 2.16 9.993C2.19 9.993 2.21 10.033 2.24 10.063C2.26 10.093 2.27 10.123 2.27 10.153C2.27 10.183 2.23 10.223 2.21 10.223C2.11 10.213 2.01 10.183 1.91 10.183C1.85 10.183 1.78 10.233 1.75 10.273C1.7 10.333 1.82 10.463 1.93 10.473C2.18 10.503 2.42 10.483 2.62 10.323C3.02 9.993 3.47 10.003 3.9 10.183C4.39 10.383 4.89 10.493 5.41 10.563C5.69 10.443 5.95 10.263 6.29 10.373C6.44 10.423 6.63 10.333 6.8 10.313C6.94 10.303 7.07 10.273 7.21 10.293C8.39 10.443 9.56 10.383 10.74 10.223C10.95 10.193 11.15 10.203 11.36 10.223C11.63 10.263 11.91 10.243 12.19 10.253C12.41 10.253 12.58 10.133 12.76 10.023C12.79 10.043 12.83 10.043 12.85 10.073C13.08 10.413 13.4 10.473 13.77 10.373C13.94 10.333 14.11 10.243 14.27 10.263C14.79 10.313 15.3 10.413 15.81 10.313C16.43 10.493 17.05 10.343 17.68 10.323C17.82 10.323 17.95 10.273 18.09 10.273C18.37 10.273 18.64 10.303 18.92 10.323C19.2 10.343 19.47 10.363 19.71 10.383C20.14 10.233 20.53 10.093 20.89 9.963C21.08 10.063 21.23 10.163 21.39 10.203C21.52 10.233 21.67 10.153 21.8 10.193H21.82C21.95 10.233 22.07 10.303 22.2 10.363C22.57 9.973 22.77 9.503 22.96 8.943C22.95 8.813 22.93 8.683 22.92 8.553H22.88ZM8.03 9.263C7.89 9.233 7.72 9.193 7.55 9.173C7.31 9.143 7.06 9.123 6.84 9.233C6.55 9.373 6.24 9.383 5.92 9.373C5.37 9.353 4.81 9.373 4.28 9.213C4.11 9.163 3.95 9.143 3.77 9.183C3.19 9.313 2.59 9.293 2.01 9.243C1.7 9.213 1.39 9.313 1.08 9.243C0.78 9.173 0.48 9.113 0.18 9.053C0.13 9.003 0.15 8.943 0.25 8.943C0.52 8.913 0.81 8.943 1.07 8.863C1.44 8.753 1.8 8.703 2.19 8.793C2.42 8.843 2.67 8.773 2.91 8.773C3.64 8.773 4.36 8.773 5.08 8.783C5.32 8.783 5.57 8.803 5.81 8.763C6.6 8.633 7.4 8.753 8.19 8.753C8.36 8.753 8.53 8.783 8.65 8.913C8.4 8.943 8.28 9.193 8.02 9.283L8.03 9.263ZM11.62 8.893C11.52 9.033 11.45 9.193 11.3 9.283C11.11 9.183 11.01 9.013 10.81 8.923C11.05 8.683 11.31 8.793 11.51 8.703C11.54 8.693 11.61 8.763 11.65 8.803C11.66 8.813 11.65 8.873 11.63 8.893H11.62Z" fill="#111112"/>
<path d="M21.1001 8.77306C20.9401 8.80306 20.7801 8.81306 20.6701 8.65306C20.6601 8.63306 20.6601 8.58306 20.6701 8.56306C20.6701 8.53306 20.7101 8.49306 20.7401 8.49306C20.9101 8.46306 21.0601 8.52306 21.1801 8.64306C21.2001 8.66306 21.1901 8.70306 21.2001 8.72306C21.1701 8.74306 21.1501 8.77306 21.1201 8.77306H21.1001Z" fill="#111112"/>
<path d="M9.87988 9.59304L9.95988 9.63304V9.55304L9.87988 9.58304V9.59304Z" fill="#111112"/>
</g>
<defs>
<clipPath id="clip0_144_2062">
<rect width="23.03" height="15.86" fill="white" transform="translate(0 0.79303)"/>
</clipPath>
</defs>
</svg>
