<svg width="24" height="17" viewBox="0 0 24 17" fill="none" xmlns="http://www.w3.org/2000/svg">
<g clip-path="url(#clip0_101_369)">
<path d="M22.5999 10.1149C22.6999 9.85488 22.7799 9.61488 22.7799 9.30488C22.7699 9.20488 22.7299 8.72488 22.7399 8.73488C22.7399 8.67488 22.7199 8.62488 22.7099 8.58488C22.4399 8.51488 22.1699 8.42488 21.9099 8.32488C21.7399 8.25488 21.5799 8.18488 21.4199 8.09488C21.2099 8.29488 21.0099 8.49488 20.7599 8.66488C20.5299 8.82488 20.3099 9.01488 20.1199 9.21488C19.7999 9.53488 19.4799 9.86488 19.0799 10.1149C18.9899 10.1749 18.8999 10.2449 18.8499 10.3249C18.6799 10.5949 18.4399 10.7849 18.1799 10.9749C17.9899 11.1149 17.8799 11.3749 17.6899 11.5049C17.0699 11.9349 16.5999 12.4949 16.0499 12.9949C15.8299 13.1949 15.6199 13.4249 15.3999 13.6349C15.3699 13.6949 15.3399 13.7549 15.2999 13.8149C15.1199 14.0849 14.8099 14.4549 14.5899 14.7949C14.6899 14.7949 14.7899 14.7349 14.8699 14.6649C14.9799 14.5749 15.0799 14.4749 15.1799 14.3849C15.3099 14.2749 15.3899 14.1049 15.5899 14.0749C15.5899 14.1049 15.6199 14.1449 15.5999 14.1549C15.4299 14.4149 15.2599 14.6649 15.0799 14.9249C15.0599 14.9549 15.0399 14.9849 15.0099 14.9949C14.9499 15.0349 14.8899 15.0649 14.8299 15.1049C14.7199 15.1849 14.5599 15.2549 14.5099 15.3649C14.4899 15.3949 14.4699 15.4149 14.4499 15.4349C14.4399 15.5549 14.4199 15.6649 14.4099 15.7849C14.4999 15.9849 14.6399 16.1649 14.7999 16.3049C14.8499 16.3449 15.2399 16.5549 15.2699 16.6549H15.2999C15.4299 16.5749 15.5799 16.5349 15.7199 16.5049C15.7999 16.4249 15.8699 16.3349 15.9199 16.2349C15.9599 16.1549 16.0699 16.0949 16.1599 16.0349C16.4299 15.8449 16.6399 15.6249 16.7799 15.3349C16.8799 15.1249 17.0999 15.0649 17.2899 14.9849C17.4699 14.9849 17.6099 14.9049 17.7399 14.7749C18.3099 14.2049 18.8899 13.6449 19.4699 13.0749C19.5899 12.9549 19.6999 12.8149 19.7999 12.7049C19.7699 12.5849 19.7499 12.4849 19.7299 12.3749C19.8599 12.2849 20.0399 12.2149 20.1399 12.0949C20.4299 11.7249 20.7999 11.4749 21.2099 11.2649C21.3699 11.1849 21.4999 11.0649 21.6499 10.9649C21.9999 10.7249 22.2599 10.3749 22.5799 10.1049L22.5999 10.1149ZM16.4199 14.3249C16.4199 14.3249 16.3399 14.3149 16.3399 14.3049C16.3399 14.2549 16.3499 14.2049 16.3599 14.1549C16.3899 14.1549 16.4299 14.1549 16.4299 14.1649C16.4299 14.2149 16.4199 14.2749 16.4099 14.3249H16.4199ZM16.6799 13.5449C16.5899 13.5949 16.4899 13.6349 16.3899 13.6549C16.3299 13.6549 16.2399 13.6349 16.2199 13.5849C16.1999 13.5449 16.2399 13.4649 16.2699 13.4049C16.2799 13.3749 16.3199 13.3649 16.3499 13.3349C16.4299 13.2649 16.4999 13.1849 16.5899 13.1349C16.6299 13.1149 16.7299 13.1549 16.7499 13.1849C16.8299 13.3149 16.7899 13.4649 16.6799 13.5249V13.5449ZM17.5499 12.9949C17.3299 12.9349 17.1399 12.8349 16.9799 12.6849C16.9599 12.6649 16.9599 12.6249 16.9599 12.6049C16.9599 12.5749 16.9799 12.5349 16.9999 12.5349C17.2599 12.4549 17.5199 12.3849 17.7799 12.3249C17.8099 12.3249 17.8999 12.4049 17.8899 12.4349C17.8199 12.6449 17.7799 12.8649 17.5499 13.0049V12.9949ZM17.9799 14.2349C17.9799 14.2349 17.8799 14.2349 17.8299 14.2249C17.8199 14.2249 17.8199 14.1549 17.8299 14.1549C17.8799 14.1349 17.9399 14.1249 17.9899 14.1149C18.0399 14.1549 18.0499 14.2049 17.9899 14.2449L17.9799 14.2349ZM18.6399 11.9149C18.5899 12.0049 18.4899 12.0149 18.3999 12.0049C18.4399 11.9349 18.4799 11.8549 18.5299 11.7849C18.5299 11.7649 18.6099 11.7649 18.6099 11.7649C18.6199 11.8149 18.6599 11.8749 18.6399 11.9149ZM19.4099 11.2149C19.3299 11.2549 19.2699 11.2249 19.2599 11.1449C19.2599 11.0949 19.2999 11.0349 19.3299 10.9749C19.3899 10.9749 19.4699 10.9549 19.5099 10.9749C19.5799 11.0149 19.5199 11.1449 19.3999 11.2049L19.4099 11.2149ZM20.1099 10.8649C20.1099 10.8649 20.0399 10.8449 20.0399 10.8349C20.0399 10.7849 20.0399 10.7249 20.0399 10.6749C20.0899 10.7249 20.1599 10.7649 20.1199 10.8649H20.1099ZM20.1999 10.3149C20.1699 10.4249 20.0899 10.5249 20.0299 10.6249C19.9899 10.4549 19.9499 10.2849 19.9299 10.1049C19.9299 10.0849 20.0199 10.0349 20.0699 10.0049C20.0899 10.0049 20.1399 10.0249 20.1499 10.0449C20.1799 10.1249 20.2199 10.2249 20.1999 10.2949V10.3149ZM21.3599 9.45488C21.3599 9.45488 21.2399 9.50488 21.1799 9.49488C21.0799 9.49488 21.0799 9.37488 21.1699 9.27488C21.2299 9.25488 21.2899 9.21488 21.3399 9.21488C21.4199 9.21488 21.4299 9.38488 21.3599 9.44488V9.45488Z" fill="#FAF5EE"/>
<path d="M14.8601 15.8349L14.9201 15.7949L14.8401 15.7649L14.8601 15.8449V15.8349Z" fill="#FAF5EE"/>
<path d="M23.0099 8.41486C22.8399 8.15486 22.6399 7.91486 22.4899 7.64486C22.2899 7.27486 22.0699 6.96486 21.6599 6.76486C21.2299 6.55486 20.9299 6.14486 20.4699 5.93486C20.3799 5.89486 20.3199 5.79486 20.2499 5.71486C20.1599 5.61486 20.0999 5.46486 19.9799 5.40486C19.5799 5.17486 19.2999 4.82486 18.9699 4.52486C18.6399 4.22486 18.2999 3.93486 18.0399 3.56486C17.9799 3.48486 17.8999 3.40486 17.8099 3.36486C17.4799 3.21486 17.2699 2.95486 17.0799 2.65486C16.9699 2.48486 16.8099 2.34486 16.6699 2.19486C16.2299 1.75486 15.7799 1.32486 15.3199 0.884861C15.2699 0.864861 15.2299 0.854861 15.1799 0.834861C15.1299 0.814861 15.0799 0.804861 15.0299 0.794861C14.9299 0.864861 14.8099 0.904861 14.6699 0.924861C14.6599 0.944861 14.6399 0.974861 14.6299 0.994861C14.7099 1.05486 14.7699 1.11486 14.8599 1.14486C14.8899 1.14486 14.8899 1.25486 14.8799 1.31486C14.8799 1.33486 14.8299 1.35486 14.7999 1.36486C14.6499 1.38486 14.4999 1.44486 14.3399 1.42486C14.2299 1.58486 14.1099 1.73486 13.9899 1.88486C13.9499 2.09486 13.9399 2.30486 13.9899 2.50486C14.0699 2.58486 14.1399 2.66486 14.2199 2.74486C14.3699 2.90486 14.5799 2.93486 14.7899 2.98486C14.7999 3.01486 14.8299 3.05486 14.8199 3.08486C14.7399 3.48486 14.9299 3.75486 15.2499 3.94486C15.3999 4.03486 15.5799 4.09486 15.6899 4.21486C16.0199 4.60486 16.2999 5.04486 16.7499 5.32486C17.0599 5.88486 17.6099 6.21486 18.0599 6.63486C18.1599 6.72486 18.2899 6.78486 18.3899 6.88486C18.5799 7.08486 18.7599 7.29486 18.9399 7.50486C19.1199 7.71486 19.2999 7.91486 19.4599 8.09486C19.8699 8.28486 20.2499 8.46486 20.5999 8.62486C20.6699 8.82486 20.6999 9.00486 20.7799 9.14486C20.8499 9.25486 21.0099 9.30486 21.0799 9.41486C21.1699 9.55486 21.1999 9.73486 21.2699 9.91486C21.5399 10.0349 21.8199 10.1649 22.0899 10.2849C22.3599 9.83486 22.6799 9.40486 23.0299 9.02486C23.0199 8.81486 23.0099 8.61486 22.9999 8.42486L23.0099 8.41486ZM21.7199 7.94486C21.7199 7.94486 21.6499 7.94486 21.6299 7.92486C21.4999 7.83486 21.3699 7.72486 21.4199 7.53486C21.4199 7.50486 21.4599 7.47486 21.4799 7.46486C21.5099 7.45486 21.5499 7.44486 21.5699 7.46486C21.7099 7.56486 21.7699 7.70486 21.7699 7.87486C21.7699 7.89486 21.7399 7.92486 21.7199 7.94486Z" fill="#FAF5EE"/>
<path d="M22.88 8.56488C22.73 8.42488 22.57 8.29488 22.42 8.16488C22.12 8.10488 21.81 8.07488 21.51 7.98488C21.1 7.86488 20.73 7.79488 20.3 7.94488C19.85 8.09488 19.33 8.01488 18.87 8.18488C18.78 8.21488 18.67 8.18488 18.56 8.18488C18.42 8.18488 18.28 8.11488 18.15 8.15488C17.71 8.27488 17.26 8.21488 16.81 8.23488C16.36 8.25488 15.91 8.28488 15.47 8.20488C15.37 8.18488 15.26 8.19488 15.16 8.22488C14.82 8.34488 14.48 8.31488 14.14 8.22488C13.94 8.18488 13.73 8.19488 13.52 8.19488C12 8.18488 10.47 8.31488 8.95 8.11488C8.02 8.16488 7.08 8.09488 6.15 8.11488C4.48 8.17488 2.82 8.19488 1.15 8.22488C0.88 8.22488 0.62 8.25488 0.35 8.31488C0.34 8.34488 0.33 8.36488 0.31 8.39488C0.28 8.44488 0.24 8.48488 0.22 8.53488C0.17 8.63488 0.09 8.71488 0.02 8.79488C0.05 9.04488 0.04 9.29488 0 9.54488C0.09 9.63488 0.19 9.72488 0.29 9.80488C0.44 9.85488 0.6 9.90488 0.75 9.96488C1.21 9.87488 1.68 9.91488 2.16 10.0049C2.19 10.0049 2.21 10.0449 2.24 10.0749C2.26 10.1049 2.27 10.1349 2.27 10.1649C2.27 10.1949 2.23 10.2349 2.21 10.2349C2.11 10.2249 2.01 10.1949 1.91 10.1949C1.85 10.1949 1.78 10.2449 1.75 10.2849C1.7 10.3449 1.82 10.4749 1.93 10.4849C2.18 10.5149 2.42 10.4949 2.62 10.3349C3.02 10.0049 3.47 10.0149 3.9 10.1949C4.39 10.3949 4.89 10.5049 5.41 10.5749C5.69 10.4549 5.95 10.2749 6.29 10.3849C6.44 10.4349 6.63 10.3449 6.8 10.3249C6.94 10.3149 7.07 10.2849 7.21 10.3049C8.39 10.4549 9.56 10.3949 10.74 10.2349C10.95 10.2049 11.15 10.2149 11.36 10.2349C11.63 10.2749 11.91 10.2549 12.19 10.2649C12.41 10.2649 12.58 10.1449 12.76 10.0349C12.79 10.0549 12.83 10.0549 12.85 10.0849C13.08 10.4249 13.4 10.4849 13.77 10.3849C13.94 10.3449 14.11 10.2549 14.27 10.2749C14.79 10.3249 15.3 10.4249 15.81 10.3249C16.43 10.5049 17.05 10.3549 17.68 10.3349C17.82 10.3349 17.95 10.2849 18.09 10.2849C18.37 10.2849 18.64 10.3149 18.92 10.3349C19.2 10.3549 19.47 10.3749 19.71 10.3949C20.14 10.2449 20.53 10.1049 20.89 9.97488C21.08 10.0749 21.23 10.1749 21.39 10.2149C21.52 10.2449 21.67 10.1649 21.8 10.2049H21.82C21.95 10.2449 22.07 10.3149 22.2 10.3749C22.57 9.98488 22.77 9.51488 22.96 8.95488C22.95 8.82488 22.93 8.69488 22.92 8.56488H22.88ZM8.03 9.27488C7.89 9.24488 7.72 9.20488 7.55 9.18488C7.31 9.15488 7.06 9.13488 6.84 9.24488C6.55 9.38488 6.24 9.39488 5.92 9.38488C5.37 9.36488 4.81 9.38488 4.28 9.22488C4.11 9.17488 3.95 9.15488 3.77 9.19488C3.19 9.32488 2.59 9.30488 2.01 9.25488C1.7 9.22488 1.39 9.32488 1.08 9.25488C0.78 9.18488 0.48 9.12488 0.18 9.06488C0.13 9.01488 0.15 8.95488 0.25 8.95488C0.52 8.92488 0.81 8.95488 1.07 8.87488C1.44 8.76488 1.8 8.71488 2.19 8.80488C2.42 8.85488 2.67 8.78488 2.91 8.78488C3.64 8.78488 4.36 8.78488 5.08 8.79488C5.32 8.79488 5.57 8.81488 5.81 8.77488C6.6 8.64488 7.4 8.76488 8.19 8.76488C8.36 8.76488 8.53 8.79488 8.65 8.92488C8.4 8.95488 8.28 9.20488 8.02 9.29488L8.03 9.27488ZM11.62 8.90488C11.52 9.04488 11.45 9.20488 11.3 9.29488C11.11 9.19488 11.01 9.02488 10.81 8.93488C11.05 8.69488 11.31 8.80488 11.51 8.71488C11.54 8.70488 11.61 8.77488 11.65 8.81488C11.66 8.82488 11.65 8.88488 11.63 8.90488H11.62Z" fill="#FAF5EE"/>
<path d="M21.1001 8.78487C20.9401 8.81487 20.7801 8.82487 20.6701 8.66487C20.6601 8.64487 20.6601 8.59487 20.6701 8.57487C20.6701 8.54487 20.7101 8.50487 20.7401 8.50487C20.9101 8.47487 21.0601 8.53487 21.1801 8.65487C21.2001 8.67487 21.1901 8.71487 21.2001 8.73487C21.1701 8.75487 21.1501 8.78487 21.1201 8.78487H21.1001Z" fill="#FAF5EE"/>
<path d="M9.87988 9.60488L9.95988 9.64488V9.56488L9.87988 9.59488V9.60488Z" fill="#FAF5EE"/>
</g>
<defs>
<clipPath id="clip0_101_369">
<rect width="23.03" height="15.86" fill="white" transform="translate(0 0.804871)"/>
</clipPath>
</defs>
</svg>
