<svg width="206" height="53" viewBox="0 0 206 53" fill="none" xmlns="http://www.w3.org/2000/svg">
<g clip-path="url(#clip0_3106_10571)">
<path d="M37.8352 0.80028C37.9097 0.715828 38.0194 0.58915 38.0194 0.420246C38.0194 0.335794 37.9821 0.251342 37.9097 0.16689C37.8352 0.0402119 37.6882 -0.00201416 37.5785 -0.00201416C37.504 -0.00201416 37.4316 -0.00201416 37.357 0.0402119C37.1004 0.16689 36.9534 0.335794 36.7692 0.546924C36.438 1.05364 36.0696 1.51601 35.7757 2.06495C34.3785 4.50984 33.238 7.0814 32.0624 9.65508C26.9892 20.9125 22.0981 32.2967 18.0536 44.0186C17.4285 45.8322 16.7289 47.6437 15.8471 49.2884C15.6257 49.7529 15.4435 50.3842 15.0006 50.3842H14.9633C14.4852 50.3842 14.4127 49.6663 14.301 49.204C13.8228 47.6015 13.6759 45.8723 13.7131 44.1453C13.7504 43.0073 13.7856 41.9115 13.8601 40.7714C14.0816 37.3554 14.4852 33.9414 15.1475 30.5253C15.9568 25.929 17.3167 21.4594 18.8608 17.1164C19.5956 15.0917 20.405 13.0691 21.0673 11.0443C21.1418 10.791 21.2143 10.5376 21.2143 10.3265C21.2515 9.69308 21.0301 9.18848 20.5892 8.76622C20.2953 8.47064 20.0738 8.34396 19.8896 8.34396C19.5956 8.34396 19.339 8.59731 19.043 9.0618C18.4924 10.0309 17.9025 11.0443 17.3147 12.0556C12.5726 19.7724 8.15971 27.8249 4.22492 36.1308C3.78404 37.2266 3.1962 38.24 2.64355 39.2935C2.49659 39.6313 2.34963 40.0114 1.9812 40.2204C1.8715 39.7981 1.8715 39.4202 1.90668 39.0402V38.5757C2.2006 34.8239 3.04717 31.1545 3.96619 27.4871C5.36334 21.7951 7.42284 16.3141 9.73901 11.0021C10.3268 9.65297 10.9519 8.30385 11.4301 6.9125C11.5398 6.57469 11.6143 6.27911 11.6516 6.02786C11.6888 5.52115 11.4673 5.14323 11.0265 4.67874C10.805 4.50984 10.5856 4.34093 10.3268 4.21425C9.95841 3.9609 9.62723 3.83422 9.33332 3.83422C8.89244 3.83422 8.524 4.21425 8.12038 4.97221C8.01068 5.22557 7.86372 5.47892 7.78921 5.73017C6.20784 8.85067 5.10461 12.138 4.14834 15.5118C2.97266 19.5592 2.12609 23.691 1.35403 27.8228C0.766196 31.07 0.28806 34.3151 0.0665855 37.6467C0.0293281 38.1956 0.0293281 38.7425 -0.00585938 39.2914C-0.00585938 39.7559 0.031398 40.2183 0.103843 40.6828C0.28806 41.6096 0.838641 42.1586 1.50099 42.1586C1.94187 42.1586 2.38275 41.9474 2.82363 41.4829C3.11755 41.1029 3.41147 40.6828 3.6702 40.2183C4.405 39.0381 4.9949 37.7312 5.61793 36.4243C8.44949 30.4788 11.428 24.5756 14.7356 18.968C14.8826 18.7147 14.9923 18.3769 15.251 18.2502L15.3255 18.3346C15.2158 18.7569 15.1413 19.1348 14.9944 19.5571C13.3033 25.4603 12.3843 31.4902 11.8689 37.6024L11.8316 38.2358C11.7219 40.0071 11.7219 41.7363 11.7219 43.5056C11.7219 45.2748 11.8316 47.1307 12.1255 48.9443C12.2725 49.8289 12.4567 50.6734 12.9349 51.4314C13.266 51.9381 13.6697 52.1894 14.2223 52.1894C14.332 52.1894 14.479 52.1894 14.6259 52.1471C15.4352 51.9782 16.17 51.556 16.7227 50.798C17.1263 50.2913 17.4575 49.7445 17.7514 49.1533C18.5235 47.6353 19.1486 45.9906 19.7364 44.3459C21.4647 39.454 23.0833 34.522 24.9566 29.6723C27.4942 23.0956 30.2512 16.6013 33.1552 10.1512C34.5524 6.94628 35.7653 3.61676 37.8248 0.791835L37.8352 0.80028Z" fill="#FAF5EE"/>
<path d="M43.4386 23.2075C42.8881 22.4411 42.2981 22.08 41.6275 22.08C41.2736 22.08 40.8803 22.1708 40.487 22.3503C39.6612 22.7113 38.9119 23.2539 38.1646 23.8387C35.9603 25.6439 33.9918 27.8101 32.0255 30.0227C32.1828 29.7061 32.3401 29.345 32.4974 29.0304C35.2917 23.0723 38.6366 17.4309 42.1408 11.969C42.8094 10.9767 43.3993 10.0287 43.8733 8.94562C44.0306 8.58459 44.1486 8.2679 44.1486 7.99765C44.1879 7.45505 44.0306 7.00534 43.716 6.55352C43.4014 6.1017 43.0868 5.92224 42.8115 5.92224C42.4968 5.92224 42.2216 6.10381 41.9069 6.55352C41.2777 7.31992 40.6878 8.17922 40.1351 8.98996C36.7116 14.1795 34.0353 19.823 31.5556 25.5996C29.5085 30.3394 26.0457 39.9438 24.1166 44.728C23.9986 44.9982 23.9592 45.1798 23.9199 45.3592C23.9199 45.6295 24.0379 45.8111 24.2739 45.9462C24.3918 46.037 24.5492 46.037 24.6671 46.037C24.9818 46.037 25.257 45.8554 25.493 45.45C25.5717 45.3149 25.6524 45.1354 25.729 44.9539C30.7732 32.892 31.1623 31.659 37.4588 26.4568C38.6242 25.494 39.7812 24.47 41.197 24.0647C41.4329 24.0203 41.6296 23.9739 41.7869 23.9739C42.2981 23.9739 42.4948 24.2441 42.4161 24.9662V25.2829C42.2588 26.5011 41.9442 27.675 41.5903 28.8489C41.3543 29.7525 40.0151 32.911 39.9364 33.0905C38.3613 36.5657 36.4736 39.815 34.0725 42.6145C33.0107 43.7884 32.5284 44.3585 31.27 45.1713C30.7194 45.5767 30.1295 45.8934 29.4588 45.8934H29.3015C28.7903 45.8934 28.5937 45.6675 28.4757 45.0362V44.4936C28.515 44.2234 28.5543 43.9067 28.633 43.6364C28.8689 42.4182 27.3331 42.4182 27.1758 43.5921C27.1365 43.818 27.0971 43.9975 27.0971 44.179C26.9792 45.6232 27.6477 46.6155 28.8689 47.0673C29.1836 47.2024 29.4982 47.2489 29.8128 47.2489C30.5207 47.2489 31.27 46.9322 31.9779 46.6176C33.7497 45.7139 34.6231 44.7385 36.0016 43.2036C39.0712 39.8192 41.5116 35.9365 43.1654 31.469C43.4407 30.7913 44.0699 28.8066 44.0699 28.5807L44.1093 28.3548C44.1486 28.1732 44.1879 27.9938 44.2272 27.8122C44.2666 27.542 44.2666 27.2253 44.3059 26.955C44.3846 25.5552 44.1879 24.2927 43.4407 23.2096L43.4386 23.2075Z" fill="#FAF5EE"/>
<path d="M45.879 17.8785V18.1931H45.2829V19.7766H44.9145V18.1931H44.3184V17.8785H45.879ZM47.8909 19.7766L47.8226 18.6597C47.8164 18.514 47.8164 18.3325 47.8081 18.1298H47.7874C47.7398 18.2966 47.6839 18.5204 47.6301 18.6956L47.2948 19.7492H46.9119L46.5766 18.6682C46.5414 18.5225 46.4876 18.2987 46.4462 18.1319H46.4255C46.4255 18.3071 46.4193 18.4887 46.411 18.6618L46.3427 19.7787H45.9867L46.1233 17.8807H46.678L46.9988 18.8096C47.0402 18.9553 47.0733 19.0968 47.1209 19.291H47.1271C47.1748 19.1158 47.2162 18.9553 47.2575 18.816L47.5784 17.8807H48.1124L48.2552 19.7787H47.8868L47.8909 19.7766Z" fill="#FAF5EE"/>
<path d="M98.2884 9.05539C98.1725 10.7001 97.4522 12.7291 96.7029 14.8446L91.2592 30.0945H90.0773L85.0641 15.991L80.022 30.0945H78.8111L71.3203 9.05539H75.5842L80.9431 25.0401L84.5446 14.492L82.6134 9.05539H86.7614L92.2051 25.0401L95.6618 14.872C96.469 12.5222 96.1234 11.3757 94.8545 9.05328H98.2822L98.2884 9.05539Z" fill="#FAF5EE"/>
<path d="M99.209 30.0671V15.9319H102.608L102.55 18.4887H102.608C102.608 18.4887 103.558 15.5793 106.584 15.5793C107.016 15.5793 107.447 15.6976 107.851 15.9615L107.447 19.8695H107.246C107.246 19.8695 105.748 17.8722 104.423 17.8722C103.299 17.8722 102.695 19.2826 102.695 19.2826V30.0671H99.209Z" fill="#FAF5EE"/>
<path d="M109.953 11.6122C109.953 10.584 110.874 9.67188 111.969 9.67188C113.064 9.67188 113.985 10.5818 113.985 11.6122C113.985 12.6425 113.035 13.5799 111.969 13.5799C110.903 13.5799 109.953 12.6699 109.953 11.6122ZM110.154 30.0649V15.9319H113.64V30.0649H110.154Z" fill="#FAF5EE"/>
<path d="M117.472 26.3638V16.7553H116.061V16.3436C117.53 15.3745 119.72 13.7573 120.612 12.1125H120.929V15.9319H124.731L124.615 16.7553H120.956L120.898 25.8065C120.898 28.0402 121.964 28.6567 123.088 28.6567C123.663 28.6567 124.325 28.4224 125.046 27.6285L125.191 27.7763C124.212 29.3049 122.972 30.3331 121.101 30.3331C119.229 30.3331 117.47 29.1001 117.47 26.3659L117.472 26.3638Z" fill="#FAF5EE"/>
<path d="M127.64 26.3638V16.7553H126.229V16.3436C127.698 15.3745 129.888 13.7573 130.78 12.1125H131.097V15.9319H134.899L134.783 16.7553H131.126L131.068 25.8065C131.068 28.0402 132.134 28.6567 133.258 28.6567C133.833 28.6567 134.496 28.4224 135.216 27.6285L135.361 27.7763C134.382 29.3049 133.142 30.3331 131.271 30.3331C129.4 30.3331 127.64 29.1001 127.64 26.3659V26.3638Z" fill="#FAF5EE"/>
<path d="M148.9 25.2174C148.583 26.8326 147.401 30.3606 143.14 30.3606C139.192 30.3606 136.197 27.4512 136.197 23.0428C136.197 18.6344 139.192 15.5793 142.939 15.5793C147.923 15.5793 148.786 19.9582 148.786 20.9568V21.3094H139.424C139.395 21.5142 139.395 21.7211 139.395 21.9259C139.395 26.0387 141.96 27.8017 144.783 27.8017C147.174 27.8017 148.269 26.0387 148.672 25.0992L148.902 25.2174H148.9ZM139.451 20.6929L145.501 20.6338C145.414 19.4008 144.868 16.3436 142.419 16.3436C140.836 16.3436 139.712 18.077 139.453 20.6929H139.451Z" fill="#FAF5EE"/>
<path d="M164.11 19.8104V30.065H160.625C160.654 25.1288 160.683 24.071 160.683 20.5451C160.683 18.3114 159.588 17.4605 158.321 17.4605C156.822 17.4605 155.613 18.8117 155.009 19.6352V30.0671H151.523V15.991H154.922V18.7822C155.729 17.5766 157.458 15.5793 160.078 15.5793C161.922 15.5793 164.11 16.6371 164.11 19.8104Z" fill="#FAF5EE"/>
<path d="M187.124 22.838C187.124 27.5694 184.243 30.3606 181.277 30.3606C176.754 30.3606 176.725 25.4539 174.018 30.4492H173.672V9.05542H177.158V18.1066H177.186C178.252 16.6075 179.664 15.5793 181.564 15.5793C184.675 15.5793 187.124 18.5183 187.124 22.838ZM183.493 23.5432C183.493 19.9582 182.398 16.9622 180.153 16.9622C179 16.9622 178.05 17.8152 177.158 19.0482V25.0422C177.158 25.0422 178.281 29.5076 180.815 29.5076C182.688 29.5076 183.493 27.2738 183.493 23.5432Z" fill="#FAF5EE"/>
<path d="M200.232 15.9319C200.348 17.6653 200.003 19.5169 199.166 21.2798L194.76 30.7997C192.802 34.8829 190.409 36.2658 190.409 36.2658L188.507 33.7682L188.594 33.5929C188.594 33.5929 192.396 33.8568 193.895 30.977L194.356 30.067L188.076 15.934H191.965L196.258 25.9542C197.266 23.6909 198.245 21.4867 198.448 21.0771C199.053 19.6963 198.62 18.1382 197.208 15.934H200.232V15.9319Z" fill="#FAF5EE"/>
<path d="M203.619 14.6313V14.9459H203.023V16.5294H202.655V14.9459H202.059V14.6313H203.619ZM205.631 16.5294L205.563 15.4125C205.557 15.2668 205.557 15.0853 205.548 14.8826H205.528C205.48 15.0494 205.424 15.2732 205.37 15.4484L205.035 16.502H204.652L204.317 15.421C204.282 15.2753 204.228 15.0515 204.186 14.8847H204.166C204.166 15.0599 204.159 15.2415 204.151 15.4146L204.083 16.5315H203.727L203.863 14.6335H204.418L204.739 15.5624C204.78 15.7081 204.814 15.8496 204.861 16.0438H204.867C204.915 15.8686 204.956 15.7081 204.998 15.5688L205.319 14.6335H205.853L205.995 16.5315H205.627L205.631 16.5294Z" fill="#FAF5EE"/>
<path d="M173.044 39.9669C172.456 41.6412 171.891 43.2542 171.324 44.8672H171.229C170.817 43.687 170.405 42.5047 169.958 41.2231C169.509 42.4984 169.093 43.6828 168.677 44.8651H168.586C168.008 43.25 167.433 41.6306 166.855 40.0113C167.389 39.8529 167.481 39.8951 167.644 40.3702C167.998 41.4047 168.35 42.4393 168.702 43.4738C168.737 43.5751 168.776 43.6765 168.84 43.8454C168.921 43.6321 168.981 43.4801 169.033 43.326C169.259 42.6609 169.468 41.9874 169.712 41.3287C169.824 41.0268 169.84 40.7565 169.704 40.4652C169.633 40.3174 169.596 40.1527 169.542 39.9923C170.109 39.8635 170.136 39.8782 170.312 40.3997C170.662 41.4343 171.014 42.4688 171.368 43.5034C171.397 43.5857 171.432 43.6659 171.486 43.8032C171.544 43.6701 171.587 43.5857 171.62 43.4949C171.846 42.8531 172.059 42.207 172.293 41.5694C172.485 41.0458 172.649 40.5264 172.305 39.9648H173.048L173.044 39.9669Z" fill="#FAF5EE"/>
<path d="M78.573 44.8651L77.3042 41.2231L76.0189 44.8715L75.9298 44.8651L74.1953 39.9944C74.7914 39.8677 74.8204 39.8846 75.0026 40.4145C75.3834 41.5314 75.7663 42.6504 76.1762 43.8475C76.2424 43.687 76.2859 43.5941 76.319 43.497C76.5881 42.7053 76.8634 41.9157 77.1117 41.1155C77.1593 40.9635 77.1221 40.7734 77.0848 40.6088C77.0393 40.404 76.9565 40.2076 76.8903 40.007C77.4098 39.8529 77.4843 39.8888 77.6437 40.3638C78.0245 41.4934 78.4075 42.6229 78.8235 43.8517C78.896 43.668 78.9373 43.5751 78.9705 43.4801C79.2002 42.8172 79.4134 42.1458 79.6618 41.4913C79.8502 40.993 79.9661 40.5074 79.6473 39.9775H80.3345C79.8957 41.6602 79.194 43.2289 78.6786 44.863L78.571 44.8672L78.573 44.8651Z" fill="#FAF5EE"/>
<path d="M142.78 44.7617L141.166 40.2858L141.087 40.2942C140.961 41.8165 140.835 43.3408 140.709 44.8631L140.543 44.8483C140.675 43.2268 140.808 41.6032 140.945 39.9437C141.123 39.9437 141.276 39.9564 141.425 39.9416C141.623 39.9205 141.712 40.005 141.779 40.195C142.145 41.2358 142.524 42.2725 142.901 43.3091C142.94 43.4189 142.99 43.5266 143.068 43.7166C143.188 43.3619 143.279 43.0896 143.372 42.8172C143.644 42.0381 143.921 41.2612 144.19 40.4821C144.403 39.8677 144.401 39.8677 145.097 39.9838C145.227 41.5863 145.36 43.1994 145.492 44.8398H144.896C144.768 43.326 144.637 41.8101 144.509 40.2942L144.434 40.2879C143.915 41.7763 143.395 43.2669 142.876 44.7554L142.776 44.7596L142.78 44.7617Z" fill="#FAF5EE"/>
<path d="M81.2656 39.9078C81.9901 39.948 82.7021 39.9184 83.3872 40.0451C84.3642 40.2266 84.7099 41.2 84.0765 41.8692C83.9006 42.055 83.646 42.1669 83.4203 42.2978C83.3293 42.3506 83.2175 42.3675 83.0767 42.4118C83.5321 43.2247 83.9751 44.0164 84.4222 44.8166C83.8571 44.9391 83.8384 44.9327 83.5859 44.4767C83.2775 43.9214 82.9733 43.3661 82.6648 42.8109C82.4165 42.3654 82.3999 42.3591 81.8452 42.4794V44.8504H81.2656V39.9078ZM81.8452 40.0683C81.8452 40.7882 81.839 41.4364 81.8535 42.0825C81.8535 42.15 81.9777 42.2683 82.046 42.2704C82.3647 42.2767 82.6897 42.2809 83.0022 42.2303C83.4886 42.15 83.7743 41.7362 83.7805 41.1725C83.7867 40.632 83.5383 40.2499 83.0498 40.1591C82.6752 40.0894 82.2861 40.1 81.8431 40.0704L81.8452 40.0683Z" fill="#FAF5EE"/>
<path d="M153.356 44.8314C152.768 44.9222 152.766 44.9243 152.514 44.4704C152.176 43.8686 151.845 43.2627 151.51 42.6589C151.39 42.4456 151.067 42.3253 150.874 42.452C150.808 42.4942 150.779 42.6377 150.779 42.7349C150.771 43.4274 150.775 44.1178 150.775 44.8398H150.195V39.8973C150.938 39.9522 151.686 39.9543 152.412 40.0767C152.973 40.1717 153.267 40.5687 153.298 41.0247C153.331 41.5378 153.062 41.9811 152.555 42.2176C152.396 42.2915 152.226 42.3379 152.009 42.4161C152.46 43.2226 152.905 44.0206 153.356 44.8293V44.8314ZM150.775 42.3063C151.224 42.2704 151.642 42.283 152.04 42.1923C152.514 42.0846 152.731 41.6518 152.702 41.0627C152.677 40.5581 152.433 40.2372 151.948 40.1506C151.628 40.0936 151.292 40.1021 150.965 40.1021C150.903 40.1021 150.787 40.2076 150.785 40.2646C150.773 40.9191 150.777 41.5736 150.777 42.3042L150.775 42.3063Z" fill="#FAF5EE"/>
<path d="M98.4123 44.8293C97.961 44.9623 97.7189 44.8187 97.5347 44.4281C97.2801 43.8834 96.9344 43.383 96.6757 42.8404C96.5018 42.4752 96.2824 42.3274 95.8456 42.4752V44.8504H95.2578V39.9057C95.9843 39.95 96.7005 39.9437 97.4001 40.0493C97.9879 40.1358 98.3419 40.5708 98.3729 41.0458C98.4061 41.5504 98.079 42.0233 97.5347 42.2514C97.3939 42.3105 97.2449 42.3527 97.0669 42.4139C97.5181 43.2226 97.959 44.0164 98.4123 44.8293ZM95.8312 41.1852C95.8312 42.4055 95.8601 42.4329 96.9365 42.2429C97.3691 42.1669 97.6464 41.8924 97.7313 41.4575C97.8969 40.6109 97.487 40.1147 96.6032 40.0936C96.0885 40.0809 95.8312 40.3329 95.8312 40.8495C95.8312 40.9614 95.8312 41.0733 95.8312 41.1852Z" fill="#FAF5EE"/>
<path d="M129.981 42.3485C129.977 43.6005 129.345 44.5611 128.373 44.8546C126.897 45.3022 125.491 44.2782 125.415 42.6779C125.398 42.3147 125.425 41.9347 125.512 41.5842C125.802 40.4378 126.75 39.7643 127.872 39.8677C129.029 39.9754 129.859 40.8368 129.966 42.0445C129.977 42.1669 129.979 42.2894 129.981 42.3464V42.3485ZM129.399 42.6356C129.319 41.903 129.192 41.2147 128.745 40.6341C128.037 39.7157 126.797 39.8255 126.313 40.8833C125.783 42.0403 125.907 43.1867 126.663 44.2043C127.346 45.1249 128.631 44.9475 129.078 43.8876C129.244 43.4949 129.296 43.0558 129.399 42.6356Z" fill="#FAF5EE"/>
<path d="M119.48 39.9543C120.215 39.9522 120.942 39.874 121.65 40.1042C122.765 40.4652 123.31 41.4406 123.154 42.7876C123.026 43.9066 122.136 44.8018 121.062 44.8588C120.546 44.8863 120.027 44.863 119.48 44.863V39.9543ZM120.056 40.1337V40.5138C120.056 41.7214 120.052 42.927 120.056 44.1346C120.058 44.7744 119.959 44.7005 120.619 44.7005C121.677 44.7005 122.289 44.1916 122.467 43.1339C122.525 42.7855 122.548 42.4203 122.527 42.0677C122.445 40.6425 121.511 39.9057 120.054 40.1337H120.056Z" fill="#FAF5EE"/>
<path d="M108.97 41.0353L108.298 41.2992C108.252 41.1493 108.219 41.0353 108.184 40.9192C108.049 40.4737 107.803 40.1274 107.327 40.0387C106.814 39.9437 106.385 40.1274 106.075 40.5455C105.605 41.1788 105.481 41.9199 105.574 42.6779C105.63 43.1318 105.76 43.6047 105.971 44.0059C106.348 44.7216 107.172 44.9644 107.923 44.6752C108.233 44.5548 108.411 44.3521 108.401 43.9953C108.391 43.6385 108.399 43.2796 108.399 42.9207C108.399 42.5716 108.589 42.4231 108.97 42.4752V44.5527C108.693 44.6139 108.422 44.6266 108.19 44.7301C106.553 45.45 104.982 44.4471 104.928 42.6399C104.909 41.9748 105.011 41.3478 105.389 40.7883C106.286 39.4645 108.217 39.5764 108.974 41.0374L108.97 41.0353Z" fill="#FAF5EE"/>
<path d="M177.623 43.7124L178.246 43.5815C178.285 43.6934 178.302 43.7947 178.35 43.8771C178.484 44.1051 178.594 44.3606 178.778 44.54C179.153 44.9053 179.821 44.8588 180.161 44.4915C180.494 44.1262 180.457 43.5118 180.055 43.1339C179.904 42.9903 179.724 42.8742 179.544 42.7665C179.202 42.5617 178.844 42.3865 178.507 42.1733C177.884 41.7806 177.691 41.3182 177.865 40.7122C178.016 40.1886 178.536 39.8508 179.192 39.8614C179.912 39.8741 180.448 40.214 180.844 40.8748L180.192 41.031C180.107 40.8284 180.043 40.6278 179.941 40.4504C179.734 40.0894 179.345 39.9395 178.942 40.0387C178.6 40.1211 178.372 40.3871 178.339 40.7524C178.306 41.1303 178.488 41.4005 178.793 41.5842C179.238 41.8523 179.695 42.0994 180.142 42.3633C180.521 42.5871 180.848 42.8573 180.935 43.3366C181.059 44.0059 180.738 44.5991 180.111 44.8356C179.08 45.222 177.934 44.7216 177.623 43.7145V43.7124Z" fill="#FAF5EE"/>
<path d="M102.528 40.8832L101.901 41.0247C101.795 40.7946 101.725 40.5665 101.597 40.3765C101.34 39.9944 100.808 39.8973 100.415 40.1337C100.071 40.3406 99.9117 40.8389 100.135 41.1873C100.272 41.4005 100.497 41.5736 100.717 41.713C101.154 41.9938 101.619 42.2281 102.062 42.5005C102.495 42.7665 102.7 43.174 102.665 43.687C102.623 44.2867 102.304 44.6794 101.735 44.8588C100.715 45.184 99.6592 44.6984 99.3301 43.7208L99.9386 43.5709C100.019 43.7715 100.081 43.9615 100.17 44.1368C100.384 44.5632 100.723 44.8039 101.205 44.7765C101.557 44.7575 101.851 44.6118 102.004 44.2698C102.157 43.9256 102.129 43.5751 101.893 43.2901C101.727 43.0895 101.508 42.9228 101.288 42.7813C100.934 42.5554 100.551 42.3759 100.195 42.1521C99.5992 41.7763 99.4108 41.3329 99.5619 40.7481C99.6985 40.2203 100.131 39.9099 100.789 39.8614C101.516 39.8086 102.213 40.2118 102.528 40.8769V40.8832Z" fill="#FAF5EE"/>
<path d="M159.718 41.0268C159.486 41.1218 159.285 41.202 159.057 41.2949C159.001 41.1176 158.958 40.9592 158.9 40.8072C158.558 39.9437 157.631 39.7431 156.965 40.385C156.909 40.4377 156.857 40.499 156.811 40.5602C156.093 41.4955 156.168 43.4337 156.965 44.2951C157.316 44.6751 157.751 44.8799 158.275 44.7554C158.78 44.635 158.983 44.2275 159.115 43.7694C159.136 43.6976 159.159 43.6237 159.188 43.5224L159.848 43.7103C159.517 44.445 158.979 44.844 158.235 44.9285C156.822 45.0889 155.787 44.2043 155.679 42.7581C155.627 42.0613 155.75 41.3984 156.137 40.8051C156.929 39.5911 158.705 39.5299 159.521 40.689C159.589 40.7861 159.641 40.8938 159.718 41.0268Z" fill="#FAF5EE"/>
<path d="M137.327 40.1253L137.821 39.8234C138.459 41.4955 139.09 43.1529 139.723 44.8124C139.169 44.9517 139.14 44.9369 138.958 44.4408C138.827 44.084 138.693 43.7314 138.569 43.3725C138.511 43.2036 138.426 43.1212 138.235 43.1276C137.805 43.1423 137.374 43.1423 136.946 43.1276C136.741 43.1212 136.648 43.2078 136.594 43.3936C136.478 43.8011 136.335 44.2001 136.234 44.6118C136.174 44.8567 136.068 44.9264 135.83 44.8293C136.275 43.6469 136.718 42.4709 137.161 41.2928C137.209 41.1683 137.277 41.0479 137.304 40.9191C137.353 40.6784 137.38 40.4314 137.416 40.1865L137.325 40.1232L137.327 40.1253ZM138.368 42.87C138.101 42.1542 137.856 41.4955 137.575 40.7376C137.291 41.5018 137.045 42.169 136.784 42.87H138.37H138.368Z" fill="#FAF5EE"/>
<path d="M164.513 44.8272C164.122 44.8961 163.865 44.7631 163.743 44.4281C163.608 44.0629 163.482 43.6934 163.325 43.3366C163.283 43.2437 163.142 43.1445 163.043 43.1402C162.602 43.1191 162.161 43.1402 161.72 43.1254C161.53 43.1191 161.439 43.1972 161.389 43.3704C161.267 43.7863 161.126 44.198 161.015 44.616C160.957 44.8314 160.87 44.9306 160.617 44.8208C160.685 44.6371 160.754 44.4535 160.824 44.2698C161.248 43.1444 161.681 42.0212 162.091 40.8917C162.17 40.6742 162.165 40.4272 162.201 40.1929L162.089 40.1464C162.252 40.0429 162.416 39.9416 162.61 39.8192C163.25 41.4997 163.881 43.1613 164.515 44.8272H164.513ZM163.153 42.8658C162.888 42.1521 162.642 41.485 162.393 40.8178L162.317 40.8326C162.074 41.4976 161.832 42.1627 161.578 42.8658H163.155H163.153Z" fill="#FAF5EE"/>
<path d="M109.977 39.9648H110.567C110.567 40.1168 110.567 40.2477 110.567 40.3786C110.571 41.3625 110.551 42.3485 110.586 43.3302C110.619 44.2677 111.163 44.7849 111.968 44.7216C112.538 44.6773 112.966 44.3099 113.082 43.7441C113.121 43.5477 113.14 43.345 113.14 43.1444C113.146 42.2049 113.142 41.2654 113.142 40.3259C113.142 40.2055 113.142 40.0873 113.142 39.9669L113.221 39.9374C113.256 39.9859 113.322 40.0366 113.322 40.0852C113.322 41.2253 113.37 42.3696 113.297 43.5055C113.227 44.6012 112.297 45.1692 111.184 44.8926C110.472 44.7174 110.01 44.2149 109.985 43.4379C109.946 42.2894 109.975 41.1387 109.975 39.9606L109.977 39.9648Z" fill="#FAF5EE"/>
<path d="M147.052 42.1712H148.929L148.939 42.2894C148.652 42.3675 148.345 42.3147 148.049 42.3232C147.73 42.3337 147.412 42.3253 147.06 42.3253V44.728H149.169V44.8293H146.449V39.9712H149.13L149.134 40.0578H147.049V42.1712H147.052Z" fill="#FAF5EE"/>
<path d="M176.648 44.8483H173.92V39.9754H176.59C175.917 40.1591 175.226 40.0409 174.502 40.119C174.502 40.7481 174.495 41.3689 174.512 41.9896C174.512 42.0487 174.673 42.1479 174.762 42.15C175.203 42.1669 175.644 42.1585 176.085 42.1585C176.191 42.1585 176.294 42.1585 176.4 42.1585L176.412 42.2746C176.321 42.2915 176.23 42.3211 176.137 42.3232C175.673 42.3274 175.212 42.3316 174.748 42.3232C174.564 42.3189 174.493 42.3865 174.495 42.5765C174.504 43.2015 174.504 43.8285 174.495 44.4535C174.491 44.6625 174.572 44.7237 174.769 44.7195C175.286 44.7089 175.806 44.7153 176.323 44.7195C176.435 44.7195 176.544 44.7385 176.656 44.7469L176.65 44.8504L176.648 44.8483Z" fill="#FAF5EE"/>
<path d="M91.5137 39.9712H94.1838L94.1879 40.0662H92.1098V42.1606H93.9954V42.2915H92.1139V44.7195H94.2272V44.825H91.5137V39.9691V39.9712Z" fill="#FAF5EE"/>
<path d="M131.389 42.1753H133.264L133.273 42.2746C133.188 42.2894 133.103 42.3147 133.016 42.3147C132.575 42.3189 132.134 42.3295 131.693 42.3126C131.437 42.302 131.346 42.3759 131.354 42.6483C131.373 43.3724 131.36 44.0966 131.36 44.844H130.791V39.9775H133.457V40.064H131.391V42.1753H131.389Z" fill="#FAF5EE"/>
<path d="M90.6556 40.0662H89.0598V44.844H88.4533V40.0788H86.8223L86.8285 39.9775H90.6556V40.0662Z" fill="#FAF5EE"/>
<path d="M183.948 40.0535V44.8462H183.364V40.081H181.723L181.727 39.9796H185.546L185.552 40.0535H183.948Z" fill="#FAF5EE"/>
<path d="M115.844 39.9648H116.436V44.7237H118.508V44.8272H115.846V39.9648H115.844Z" fill="#FAF5EE"/>
<path d="M85.4004 39.9648H85.951V44.8483H85.4004V39.9648Z" fill="#FAF5EE"/>
<path d="M114.295 39.9606H114.852V44.842H114.295V39.9606Z" fill="#FAF5EE"/>
<path d="M154.871 44.8525H154.311V39.9712H154.871V44.8525Z" fill="#FAF5EE"/>
</g>
<defs>
<clipPath id="clip0_3106_10571">
<rect width="206" height="53" fill="white"/>
</clipPath>
</defs>
</svg>
