<svg width="206" height="53" viewBox="0 0 206 53" fill="none" xmlns="http://www.w3.org/2000/svg">
<g clip-path="url(#clip0_101_294)">
<path d="M37.8349 0.80028C37.9095 0.715828 38.0192 0.58915 38.0192 0.420246C38.0192 0.335794 37.9819 0.251342 37.9095 0.16689C37.8349 0.0402119 37.688 -0.00201416 37.5783 -0.00201416C37.5038 -0.00201416 37.4313 -0.00201416 37.3568 0.0402119C37.1001 0.16689 36.9532 0.335794 36.769 0.546924C36.4378 1.05364 36.0694 1.51601 35.7754 2.06495C34.3783 4.50984 33.2378 7.0814 32.0621 9.65508C26.9889 20.9125 22.0979 32.2967 18.0534 44.0186C17.4283 45.8322 16.7287 47.6437 15.8469 49.2884C15.6254 49.7529 15.4433 50.3842 15.0003 50.3842H14.9631C14.4849 50.3842 14.4125 49.6663 14.3007 49.204C13.8226 47.6015 13.6756 45.8723 13.7129 44.1453C13.7501 43.0073 13.7853 41.9115 13.8598 40.7714C14.0813 37.3553 14.4849 33.9414 15.1473 30.5253C15.9566 25.929 17.3165 21.4594 18.8606 17.1164C19.5954 15.0917 20.4047 13.0691 21.0671 11.0443C21.1416 10.791 21.214 10.5376 21.214 10.3265C21.2513 9.69308 21.0298 9.18848 20.5889 8.76622C20.295 8.47064 20.0735 8.34396 19.8893 8.34396C19.5954 8.34396 19.3387 8.59732 19.0428 9.0618C18.4922 10.0309 17.9023 11.0443 17.3144 12.0556C12.5724 19.7724 8.15947 27.8249 4.22468 36.1308C3.7838 37.2266 3.19596 38.24 2.64331 39.2935C2.49635 39.6313 2.34939 40.0114 1.98095 40.2204C1.87125 39.7981 1.87125 39.4202 1.90644 39.0402V38.5757C2.20036 34.8239 3.04693 31.1545 3.96594 27.4871C5.36309 21.7951 7.4226 16.3141 9.73876 11.0021C10.3266 9.65297 10.9517 8.30385 11.4298 6.9125C11.5395 6.57469 11.614 6.27911 11.6513 6.02786C11.6886 5.52115 11.4671 5.14323 11.0262 4.67874C10.8047 4.50984 10.5853 4.34093 10.3266 4.21425C9.95817 3.9609 9.62699 3.83422 9.33307 3.83422C8.89219 3.83422 8.52376 4.21425 8.12014 4.97221C8.01044 5.22557 7.86348 5.47892 7.78896 5.73017C6.20759 8.85067 5.10436 12.138 4.14809 15.5118C2.97241 19.5592 2.12584 23.691 1.35379 27.8228C0.765952 31.07 0.287816 34.3151 0.0663413 37.6467C0.029084 38.1956 0.029084 38.7425 -0.00610352 39.2914C-0.00610352 39.7559 0.0311538 40.2183 0.103599 40.6828C0.287816 41.6096 0.838396 42.1586 1.50075 42.1586C1.94163 42.1586 2.38251 41.9474 2.82339 41.4829C3.1173 41.1029 3.41122 40.6828 3.66995 40.2183C4.40475 39.0381 4.99466 37.7312 5.61769 36.4243C8.44924 30.4788 11.4278 24.5756 14.7354 18.968C14.8823 18.7147 14.992 18.3769 15.2508 18.2502L15.3253 18.3346C15.2156 18.7569 15.1411 19.1348 14.9941 19.5571C13.303 25.4603 12.384 31.4902 11.8686 37.6024L11.8314 38.2358C11.7217 40.0071 11.7217 41.7363 11.7217 43.5056C11.7217 45.2748 11.8314 47.1307 12.1253 48.9443C12.2723 49.8289 12.4565 50.6734 12.9346 51.4314C13.2658 51.9381 13.6694 52.1894 14.2221 52.1894C14.3318 52.1894 14.4787 52.1894 14.6257 52.1471C15.435 51.9782 16.1698 51.556 16.7224 50.798C17.1261 50.2913 17.4572 49.7445 17.7512 49.1533C18.5232 47.6353 19.1483 45.9906 19.7362 44.3459C21.4645 39.454 23.0831 34.522 24.9563 29.6723C27.494 23.0956 30.251 16.6013 33.155 10.1512C34.5522 6.94628 35.7651 3.61676 37.8246 0.791835L37.8349 0.80028Z" fill="#111112"/>
<path d="M43.4379 23.2075C42.8873 22.4411 42.2974 22.08 41.6268 22.08C41.2728 22.08 40.8796 22.1708 40.4863 22.3503C39.6604 22.7113 38.9111 23.2539 38.1639 23.8387C35.9595 25.6439 33.9911 27.8101 32.0247 30.0227C32.182 29.7061 32.3393 29.345 32.4967 29.0304C35.291 23.0723 38.6358 17.4309 42.1401 11.969C42.8087 10.9767 43.3986 10.0287 43.8726 8.94562C44.0299 8.58459 44.1479 8.2679 44.1479 7.99765C44.1872 7.45505 44.0299 7.00534 43.7153 6.55352C43.4006 6.1017 43.086 5.92224 42.8107 5.92224C42.4961 5.92224 42.2208 6.10381 41.9062 6.55352C41.277 7.31992 40.6871 8.17922 40.1344 8.98996C36.7109 14.1795 34.0346 19.823 31.5549 25.5996C29.5078 30.3394 26.0449 39.9438 24.1158 44.728C23.9978 44.9982 23.9585 45.1798 23.9192 45.3592C23.9192 45.6295 24.0372 45.8111 24.2731 45.9462C24.3911 46.037 24.5484 46.037 24.6664 46.037C24.981 46.037 25.2563 45.8554 25.4923 45.45C25.5709 45.3149 25.6517 45.1354 25.7282 44.9539C30.7725 32.892 31.1616 31.659 37.4581 26.4568C38.6234 25.494 39.7805 24.47 41.1962 24.0647C41.4322 24.0203 41.6288 23.9739 41.7862 23.9739C42.2974 23.9739 42.494 24.2441 42.4154 24.9662V25.2829C42.2581 26.5011 41.9435 27.675 41.5895 28.8489C41.3536 29.7525 40.0144 32.911 39.9357 33.0905C38.3606 36.5657 36.4728 39.815 34.0718 42.6145C33.01 43.7884 32.5277 44.3585 31.2692 45.1713C30.7187 45.5767 30.1287 45.8934 29.4581 45.8934H29.3008C28.7896 45.8934 28.5929 45.6675 28.4749 45.0362V44.4936C28.5143 44.2234 28.5536 43.9067 28.6322 43.6364C28.8682 42.4182 27.3324 42.4182 27.1751 43.5921C27.1357 43.818 27.0964 43.9975 27.0964 44.179C26.9784 45.6232 27.647 46.6155 28.8682 47.0673C29.1828 47.2024 29.4974 47.2489 29.8121 47.2489C30.5199 47.2489 31.2692 46.9322 31.9771 46.6176C33.7489 45.7139 34.6224 44.7385 36.0009 43.2036C39.0705 39.8192 41.5109 35.9365 43.1647 31.469C43.44 30.7913 44.0692 28.8066 44.0692 28.5807L44.1085 28.3548C44.1479 28.1732 44.1872 27.9938 44.2265 27.8122C44.2658 27.542 44.2658 27.2253 44.3052 26.955C44.3838 25.5552 44.1872 24.2927 43.44 23.2096L43.4379 23.2075Z" fill="#111112"/>
<path d="M45.8783 17.8785V18.1931H45.2822V19.7766H44.9137V18.1931H44.3176V17.8785H45.8783ZM47.8902 19.7766L47.8219 18.6597C47.8157 18.514 47.8157 18.3325 47.8074 18.1298H47.7867C47.7391 18.2966 47.6832 18.5204 47.6294 18.6956L47.2941 19.7492H46.9112L46.5758 18.6682C46.5406 18.5225 46.4868 18.2987 46.4454 18.1319H46.4247C46.4247 18.3071 46.4185 18.4887 46.4102 18.6618L46.3419 19.7787H45.9859L46.1225 17.8807H46.6773L46.9981 18.8096C47.0395 18.9553 47.0726 19.0968 47.1202 19.291H47.1264C47.174 19.1158 47.2154 18.9553 47.2568 18.816L47.5776 17.8807H48.1117L48.2545 19.7787H47.8861L47.8902 19.7766Z" fill="#111112"/>
<path d="M98.2889 9.05539C98.173 10.7001 97.4527 12.7291 96.7034 14.8446L91.2597 30.0945H90.0778L85.0646 15.991L80.0225 30.0945H78.8116L71.3208 9.05539H75.5847L80.9435 25.0401L84.5451 14.492L82.6139 9.05539H86.7619L92.2056 25.0401L95.6623 14.872C96.4695 12.5222 96.1238 11.3757 94.855 9.05328H98.2827L98.2889 9.05539Z" fill="#111112"/>
<path d="M99.21 30.0671V15.9319H102.609L102.551 18.4887H102.609C102.609 18.4887 103.559 15.5793 106.585 15.5793C107.017 15.5793 107.448 15.6976 107.852 15.9615L107.448 19.8695H107.247C107.247 19.8695 105.749 17.8722 104.424 17.8722C103.3 17.8722 102.696 19.2826 102.696 19.2826V30.0671H99.21V30.0671Z" fill="#111112"/>
<path d="M109.955 11.6122C109.955 10.584 110.876 9.67188 111.971 9.67188C113.066 9.67188 113.987 10.5818 113.987 11.6122C113.987 12.6425 113.037 13.5799 111.971 13.5799C110.905 13.5799 109.955 12.6699 109.955 11.6122V11.6122ZM110.155 30.0649V15.9319H113.641V30.0649H110.155V30.0649Z" fill="#111112"/>
<path d="M117.472 26.3638V16.7553H116.061V16.3436C117.53 15.3745 119.72 13.7573 120.612 12.1125H120.929V15.9319H124.731L124.615 16.7553H120.956L120.898 25.8065C120.898 28.0402 121.964 28.6567 123.088 28.6567C123.663 28.6567 124.325 28.4224 125.046 27.6285L125.191 27.7763C124.212 29.3049 122.972 30.3331 121.101 30.3331C119.229 30.3331 117.47 29.1001 117.47 26.3659L117.472 26.3638Z" fill="#111112"/>
<path d="M127.641 26.3638V16.7553H126.23V16.3436C127.699 15.3745 129.889 13.7573 130.781 12.1125H131.098V15.9319H134.9L134.784 16.7553H131.127L131.069 25.8065C131.069 28.0402 132.135 28.6567 133.259 28.6567C133.834 28.6567 134.497 28.4224 135.217 27.6285L135.362 27.7763C134.383 29.3049 133.143 30.3331 131.272 30.3331C129.401 30.3331 127.641 29.1001 127.641 26.3659V26.3638Z" fill="#111112"/>
<path d="M148.901 25.2174C148.584 26.8326 147.402 30.3606 143.141 30.3606C139.193 30.3606 136.198 27.4512 136.198 23.0428C136.198 18.6344 139.193 15.5793 142.94 15.5793C147.924 15.5793 148.787 19.9582 148.787 20.9568V21.3094H139.425C139.396 21.5142 139.396 21.7211 139.396 21.9259C139.396 26.0387 141.961 27.8017 144.784 27.8017C147.175 27.8017 148.27 26.0387 148.673 25.0992L148.903 25.2174H148.901ZM139.452 20.6929L145.502 20.6338C145.415 19.4008 144.869 16.3436 142.42 16.3436C140.837 16.3436 139.713 18.077 139.454 20.6929H139.452Z" fill="#111112"/>
<path d="M164.11 19.8104V30.065H160.625C160.654 25.1288 160.683 24.071 160.683 20.5451C160.683 18.3114 159.588 17.4605 158.321 17.4605C156.822 17.4605 155.613 18.8117 155.009 19.6352V30.0671H151.523V15.991H154.922V18.7822C155.729 17.5766 157.458 15.5793 160.078 15.5793C161.922 15.5793 164.11 16.6371 164.11 19.8104V19.8104Z" fill="#111112"/>
<path d="M187.125 22.838C187.125 27.5694 184.244 30.3606 181.277 30.3606C176.755 30.3606 176.726 25.4539 174.019 30.4492H173.673V9.05542H177.158V18.1066H177.187C178.253 16.6075 179.665 15.5793 181.565 15.5793C184.676 15.5793 187.125 18.5183 187.125 22.838V22.838ZM183.494 23.5432C183.494 19.9582 182.399 16.9622 180.154 16.9622C179.001 16.9622 178.051 17.8152 177.158 19.0482V25.0422C177.158 25.0422 178.282 29.5076 180.816 29.5076C182.689 29.5076 183.494 27.2738 183.494 23.5432V23.5432Z" fill="#111112"/>
<path d="M200.233 15.9319C200.349 17.6653 200.004 19.5169 199.167 21.2798L194.761 30.7997C192.803 34.8829 190.41 36.2658 190.41 36.2658L188.508 33.7682L188.595 33.5929C188.595 33.5929 192.397 33.8568 193.896 30.977L194.357 30.067L188.077 15.934H191.966L196.259 25.9542C197.267 23.6909 198.246 21.4867 198.449 21.0771C199.054 19.6963 198.621 18.1382 197.209 15.934H200.233V15.9319Z" fill="#111112"/>
<path d="M203.62 14.6313V14.9459H203.023V16.5294H202.655V14.9459H202.059V14.6313H203.62ZM205.631 16.5294L205.563 15.4125C205.557 15.2668 205.557 15.0853 205.549 14.8826H205.528C205.48 15.0494 205.424 15.2732 205.371 15.4484L205.035 16.502H204.652L204.317 15.421C204.282 15.2753 204.228 15.0515 204.187 14.8847H204.166C204.166 15.0599 204.16 15.2415 204.151 15.4146L204.083 16.5315H203.727L203.864 14.6335H204.418L204.739 15.5624C204.781 15.7081 204.814 15.8496 204.861 16.0438H204.868C204.915 15.8686 204.957 15.7081 204.998 15.5688L205.319 14.6335H205.853L205.996 16.5315H205.627L205.631 16.5294Z" fill="#111112"/>
<path d="M173.046 39.9669C172.458 41.6412 171.893 43.2542 171.326 44.8672H171.231C170.819 43.687 170.407 42.5047 169.96 41.2231C169.511 42.4984 169.095 43.6828 168.679 44.8651H168.588C168.01 43.25 167.435 41.6306 166.857 40.0113C167.391 39.8529 167.482 39.8951 167.646 40.3702C168 41.4047 168.352 42.4393 168.703 43.4738C168.739 43.5751 168.778 43.6765 168.842 43.8454C168.923 43.6321 168.983 43.4801 169.035 43.326C169.26 42.6609 169.469 41.9874 169.714 41.3287C169.825 41.0268 169.842 40.7565 169.705 40.4652C169.635 40.3174 169.598 40.1527 169.544 39.9923C170.111 39.8635 170.138 39.8782 170.314 40.3997C170.664 41.4343 171.016 42.4688 171.369 43.5034C171.398 43.5857 171.434 43.6659 171.487 43.8032C171.545 43.6701 171.589 43.5857 171.622 43.4949C171.848 42.8531 172.061 42.207 172.295 41.5694C172.487 41.0458 172.651 40.5264 172.307 39.9648H173.05L173.046 39.9669Z" fill="#111112"/>
<path d="M78.5738 44.8651L77.305 41.2231L76.0196 44.8715L75.9306 44.8651L74.196 39.9944C74.7922 39.8677 74.8211 39.8846 75.0033 40.4145C75.3841 41.5314 75.7671 42.6504 76.1769 43.8475C76.2431 43.687 76.2866 43.5941 76.3197 43.497C76.5888 42.7053 76.8641 41.9157 77.1125 41.1155C77.1601 40.9635 77.1228 40.7734 77.0856 40.6088C77.04 40.404 76.9572 40.2076 76.891 40.007C77.4105 39.8529 77.485 39.8888 77.6444 40.3638C78.0253 41.4934 78.4082 42.6229 78.8242 43.8517C78.8967 43.668 78.9381 43.5751 78.9712 43.4801C79.2009 42.8172 79.4141 42.1458 79.6625 41.4913C79.8509 40.993 79.9668 40.5074 79.648 39.9775H80.3352C79.8964 41.6602 79.1947 43.2289 78.6793 44.863L78.5717 44.8672L78.5738 44.8651Z" fill="#111112"/>
<path d="M142.78 44.7617L141.166 40.2858L141.087 40.2942C140.961 41.8165 140.835 43.3408 140.709 44.8631L140.543 44.8483C140.675 43.2268 140.808 41.6032 140.945 39.9437C141.123 39.9437 141.276 39.9564 141.425 39.9416C141.623 39.9205 141.712 40.005 141.779 40.195C142.145 41.2358 142.524 42.2725 142.901 43.3091C142.94 43.4189 142.99 43.5266 143.068 43.7166C143.188 43.3619 143.279 43.0896 143.372 42.8172C143.644 42.0381 143.921 41.2612 144.19 40.4821C144.403 39.8677 144.401 39.8677 145.097 39.9838C145.227 41.5863 145.36 43.1994 145.492 44.8398H144.896C144.768 43.326 144.637 41.8101 144.509 40.2942L144.434 40.2879C143.915 41.7763 143.395 43.2669 142.876 44.7554L142.776 44.7596L142.78 44.7617Z" fill="#111112"/>
<path d="M81.2666 39.9078C81.991 39.948 82.7031 39.9184 83.3882 40.0451C84.3652 40.2266 84.7108 41.2 84.0775 41.8692C83.9015 42.055 83.6469 42.1669 83.4213 42.2978C83.3302 42.3506 83.2185 42.3675 83.0777 42.4118C83.5331 43.2247 83.976 44.0164 84.4231 44.8166C83.8581 44.9391 83.8394 44.9327 83.5869 44.4767C83.2785 43.9214 82.9742 43.3661 82.6658 42.8109C82.4174 42.3654 82.4009 42.3591 81.8462 42.4794V44.8504H81.2666V39.9078V39.9078ZM81.8462 40.0683C81.8462 40.7882 81.8399 41.4364 81.8544 42.0825C81.8544 42.15 81.9786 42.2683 82.0469 42.2704C82.3657 42.2767 82.6907 42.2809 83.0032 42.2303C83.4896 42.15 83.7753 41.7362 83.7815 41.1725C83.7877 40.632 83.5393 40.2499 83.0508 40.1591C82.6762 40.0894 82.287 40.1 81.8441 40.0704L81.8462 40.0683Z" fill="#111112"/>
<path d="M153.357 44.8314C152.77 44.9222 152.768 44.9243 152.515 44.4704C152.178 43.8686 151.846 43.2627 151.511 42.6589C151.391 42.4456 151.068 42.3253 150.876 42.452C150.809 42.4942 150.78 42.6377 150.78 42.7349C150.772 43.4274 150.776 44.1178 150.776 44.8398H150.197V39.8973C150.94 39.9522 151.687 39.9543 152.414 40.0767C152.975 40.1717 153.268 40.5687 153.299 41.0247C153.333 41.5378 153.064 41.9811 152.556 42.2176C152.397 42.2915 152.227 42.3379 152.01 42.4161C152.461 43.2226 152.906 44.0206 153.357 44.8293V44.8314ZM150.776 42.3063C151.225 42.2704 151.644 42.283 152.041 42.1923C152.515 42.0846 152.732 41.6518 152.703 41.0627C152.679 40.5581 152.434 40.2372 151.95 40.1506C151.629 40.0936 151.294 40.1021 150.967 40.1021C150.905 40.1021 150.789 40.2076 150.787 40.2646C150.774 40.9191 150.778 41.5736 150.778 42.3042L150.776 42.3063Z" fill="#111112"/>
<path d="M98.4132 44.8293C97.962 44.9623 97.7198 44.8187 97.5356 44.4281C97.281 43.8834 96.9354 43.383 96.6766 42.8404C96.5028 42.4752 96.2834 42.3274 95.8466 42.4752V44.8504H95.2588V39.9057C95.9853 39.95 96.7015 39.9437 97.4011 40.0493C97.9889 40.1358 98.3429 40.5708 98.3739 41.0458C98.407 41.5504 98.08 42.0233 97.5356 42.2514C97.3949 42.3105 97.2458 42.3527 97.0678 42.4139C97.5191 43.2226 97.9599 44.0164 98.4132 44.8293V44.8293ZM95.8321 41.1852C95.8321 42.4055 95.8611 42.4329 96.9374 42.2429C97.37 42.1669 97.6474 41.8924 97.7323 41.4575C97.8979 40.6109 97.488 40.1147 96.6042 40.0936C96.0895 40.0809 95.8321 40.3329 95.8321 40.8495C95.8321 40.9614 95.8321 41.0733 95.8321 41.1852V41.1852Z" fill="#111112"/>
<path d="M129.981 42.3485C129.976 43.6005 129.345 44.5611 128.372 44.8546C126.897 45.3022 125.491 44.2782 125.415 42.6779C125.398 42.3147 125.425 41.9347 125.512 41.5842C125.802 40.4378 126.75 39.7643 127.871 39.8677C129.029 39.9754 129.859 40.8368 129.966 42.0445C129.976 42.1669 129.979 42.2894 129.981 42.3464V42.3485ZM129.399 42.6356C129.318 41.903 129.192 41.2147 128.745 40.6341C128.037 39.7157 126.797 39.8255 126.313 40.8833C125.783 42.0403 125.907 43.1867 126.663 44.2043C127.346 45.1249 128.631 44.9475 129.078 43.8876C129.244 43.4949 129.296 43.0558 129.399 42.6356Z" fill="#111112"/>
<path d="M119.48 39.9543C120.215 39.9522 120.942 39.874 121.649 40.1042C122.765 40.4652 123.309 41.4406 123.154 42.7876C123.026 43.9066 122.136 44.8018 121.062 44.8588C120.546 44.8863 120.027 44.863 119.48 44.863V39.9543V39.9543ZM120.056 40.1337V40.5138C120.056 41.7214 120.052 42.927 120.056 44.1346C120.058 44.7744 119.958 44.7005 120.619 44.7005C121.676 44.7005 122.289 44.1916 122.467 43.1339C122.525 42.7855 122.548 42.4203 122.527 42.0677C122.444 40.6425 121.511 39.9057 120.054 40.1337H120.056Z" fill="#111112"/>
<path d="M108.972 41.0353L108.299 41.2992C108.253 41.1493 108.22 41.0353 108.185 40.9192C108.05 40.4737 107.804 40.1274 107.328 40.0387C106.815 39.9437 106.386 40.1274 106.076 40.5455C105.606 41.1788 105.482 41.9199 105.575 42.6779C105.631 43.1318 105.761 43.6047 105.972 44.0059C106.349 44.7216 107.173 44.9644 107.924 44.6752C108.235 44.5548 108.413 44.3521 108.402 43.9953C108.392 43.6385 108.4 43.2796 108.4 42.9207C108.4 42.5716 108.591 42.4231 108.972 42.4752V44.5527C108.694 44.6139 108.423 44.6266 108.191 44.7301C106.554 45.45 104.983 44.4471 104.929 42.6399C104.91 41.9748 105.012 41.3478 105.391 40.7883C106.287 39.4645 108.218 39.5764 108.976 41.0374L108.972 41.0353Z" fill="#111112"/>
<path d="M177.625 43.7124L178.248 43.5815C178.287 43.6934 178.303 43.7947 178.351 43.8771C178.486 44.1051 178.595 44.3606 178.779 44.54C179.154 44.9053 179.823 44.8588 180.162 44.4915C180.495 44.1262 180.458 43.5118 180.057 43.1339C179.905 42.9903 179.725 42.8742 179.545 42.7665C179.204 42.5617 178.846 42.3865 178.508 42.1733C177.885 41.7806 177.693 41.3182 177.867 40.7122C178.018 40.1886 178.537 39.8508 179.193 39.8614C179.914 39.8741 180.45 40.214 180.845 40.8748L180.193 41.031C180.108 40.8284 180.044 40.6278 179.943 40.4504C179.736 40.0894 179.347 39.9395 178.943 40.0387C178.601 40.1211 178.374 40.3871 178.341 40.7524C178.308 41.1303 178.49 41.4005 178.794 41.5842C179.239 41.8523 179.696 42.0994 180.144 42.3633C180.522 42.5871 180.849 42.8573 180.936 43.3366C181.06 44.0059 180.74 44.5991 180.112 44.8356C179.082 45.222 177.935 44.7216 177.625 43.7145V43.7124Z" fill="#111112"/>
<path d="M102.528 40.8832L101.901 41.0247C101.796 40.7946 101.725 40.5665 101.597 40.3765C101.34 39.9944 100.808 39.8973 100.415 40.1337C100.071 40.3406 99.9119 40.8389 100.135 41.1873C100.272 41.4005 100.498 41.5736 100.717 41.713C101.154 41.9938 101.62 42.2281 102.063 42.5005C102.495 42.7665 102.7 43.174 102.665 43.687C102.623 44.2867 102.305 44.6794 101.735 44.8588C100.715 45.184 99.6594 44.6984 99.3303 43.7208L99.9389 43.5709C100.02 43.7715 100.082 43.9615 100.171 44.1368C100.384 44.5632 100.723 44.8039 101.206 44.7765C101.557 44.7575 101.851 44.6118 102.005 44.2698C102.158 43.9256 102.129 43.5751 101.893 43.2901C101.727 43.0895 101.508 42.9228 101.288 42.7813C100.934 42.5554 100.552 42.3759 100.196 42.1521C99.5994 41.7763 99.411 41.3329 99.5621 40.7481C99.6988 40.2203 100.131 39.9099 100.79 39.8614C101.516 39.8086 102.214 40.2118 102.528 40.8769V40.8832Z" fill="#111112"/>
<path d="M159.718 41.0268C159.486 41.1218 159.286 41.202 159.058 41.2949C159.002 41.1176 158.959 40.9592 158.901 40.8072C158.559 39.9437 157.632 39.7431 156.965 40.385C156.909 40.4377 156.858 40.499 156.812 40.5602C156.094 41.4955 156.168 43.4337 156.965 44.2951C157.317 44.6751 157.752 44.8799 158.276 44.7554C158.781 44.635 158.983 44.2275 159.116 43.7694C159.137 43.6976 159.159 43.6237 159.188 43.5224L159.849 43.7103C159.517 44.445 158.979 44.844 158.236 44.9285C156.823 45.0889 155.788 44.2043 155.68 42.7581C155.628 42.0613 155.75 41.3984 156.137 40.8051C156.93 39.5911 158.706 39.5299 159.522 40.689C159.59 40.7861 159.642 40.8938 159.718 41.0268V41.0268Z" fill="#111112"/>
<path d="M137.327 40.1253L137.821 39.8234C138.459 41.4955 139.09 43.1529 139.723 44.8124C139.169 44.9517 139.14 44.9369 138.958 44.4408C138.827 44.084 138.693 43.7314 138.569 43.3725C138.511 43.2036 138.426 43.1212 138.235 43.1276C137.805 43.1423 137.374 43.1423 136.946 43.1276C136.741 43.1212 136.648 43.2078 136.594 43.3936C136.478 43.8011 136.335 44.2001 136.234 44.6118C136.174 44.8567 136.068 44.9264 135.83 44.8293C136.275 43.6469 136.718 42.4709 137.161 41.2928C137.209 41.1683 137.277 41.0479 137.304 40.9191C137.353 40.6784 137.38 40.4314 137.416 40.1865L137.325 40.1232L137.327 40.1253ZM138.368 42.87C138.101 42.1542 137.856 41.4955 137.575 40.7376C137.291 41.5018 137.045 42.169 136.784 42.87H138.37H138.368Z" fill="#111112"/>
<path d="M164.514 44.8272C164.124 44.8961 163.867 44.7631 163.744 44.4281C163.61 44.0629 163.483 43.6934 163.326 43.3366C163.285 43.2437 163.144 43.1445 163.045 43.1402C162.604 43.1191 162.163 43.1402 161.722 43.1254C161.531 43.1191 161.44 43.1972 161.391 43.3704C161.269 43.7863 161.128 44.198 161.016 44.616C160.958 44.8314 160.871 44.9306 160.619 44.8208C160.687 44.6371 160.755 44.4535 160.826 44.2698C161.25 43.1444 161.683 42.0212 162.092 40.8917C162.171 40.6742 162.167 40.4272 162.202 40.1929L162.09 40.1464C162.254 40.0429 162.417 39.9416 162.612 39.8192C163.252 41.4997 163.883 43.1613 164.516 44.8272H164.514ZM163.154 42.8658C162.889 42.1521 162.643 41.485 162.395 40.8178L162.318 40.8326C162.076 41.4976 161.834 42.1627 161.579 42.8658H163.156H163.154Z" fill="#111112"/>
<path d="M109.978 39.9648H110.568C110.568 40.1168 110.568 40.2477 110.568 40.3786C110.572 41.3625 110.551 42.3485 110.586 43.3302C110.619 44.2677 111.164 44.7849 111.969 44.7216C112.538 44.6773 112.967 44.3099 113.082 43.7441C113.122 43.5477 113.14 43.345 113.14 43.1444C113.147 42.2049 113.142 41.2654 113.142 40.3259C113.142 40.2055 113.142 40.0873 113.142 39.9669L113.221 39.9374C113.256 39.9859 113.323 40.0366 113.323 40.0852C113.323 41.2253 113.37 42.3696 113.298 43.5055C113.227 44.6012 112.298 45.1692 111.184 44.8926C110.472 44.7174 110.011 44.2149 109.986 43.4379C109.947 42.2894 109.976 41.1387 109.976 39.9606L109.978 39.9648Z" fill="#111112"/>
<path d="M147.053 42.1712H148.93L148.94 42.2894C148.653 42.3675 148.346 42.3147 148.05 42.3232C147.732 42.3337 147.413 42.3253 147.061 42.3253V44.728H149.17V44.8293H146.45V39.9712H149.131L149.135 40.0578H147.051V42.1712H147.053Z" fill="#111112"/>
<path d="M176.65 44.8483H173.922V39.9754H176.592C175.919 40.1591 175.228 40.0409 174.503 40.119C174.503 40.7481 174.497 41.3689 174.514 41.9896C174.514 42.0487 174.675 42.1479 174.764 42.15C175.205 42.1669 175.646 42.1585 176.087 42.1585C176.192 42.1585 176.296 42.1585 176.401 42.1585L176.414 42.2746C176.323 42.2915 176.232 42.3211 176.138 42.3232C175.675 42.3274 175.213 42.3316 174.75 42.3232C174.565 42.3189 174.495 42.3865 174.497 42.5765C174.505 43.2015 174.505 43.8285 174.497 44.4535C174.493 44.6625 174.574 44.7237 174.77 44.7195C175.288 44.7089 175.807 44.7153 176.325 44.7195C176.436 44.7195 176.546 44.7385 176.658 44.7469L176.652 44.8504L176.65 44.8483Z" fill="#111112"/>
<path d="M91.5144 39.9712H94.1845L94.1887 40.0662H92.1105V42.1606H93.9962V42.2915H92.1147V44.7195H94.228V44.825H91.5144V39.9691V39.9712Z" fill="#111112"/>
<path d="M131.39 42.1753H133.265L133.274 42.2746C133.189 42.2894 133.104 42.3147 133.017 42.3147C132.576 42.3189 132.135 42.3295 131.694 42.3126C131.438 42.302 131.347 42.3759 131.355 42.6483C131.374 43.3724 131.361 44.0966 131.361 44.844H130.792V39.9775H133.458V40.064H131.392V42.1753H131.39Z" fill="#111112"/>
<path d="M90.6554 40.0662H89.0595V44.844H88.4531V40.0788H86.822L86.8282 39.9775H90.6554V40.0662Z" fill="#111112"/>
<path d="M183.948 40.0535V44.8462H183.364V40.081H181.723L181.727 39.9796H185.546L185.552 40.0535H183.948Z" fill="#111112"/>
<path d="M115.844 39.9648H116.435V44.7237H118.507V44.8272H115.846V39.9648H115.844Z" fill="#111112"/>
<path d="M85.4001 39.9648H85.9507V44.8483H85.4001V39.9648Z" fill="#111112"/>
<path d="M114.295 39.9606H114.852V44.842H114.295V39.9606Z" fill="#111112"/>
<path d="M154.873 44.8525H154.312V39.9712H154.873V44.8525Z" fill="#111112"/>
</g>
<defs>
<clipPath id="clip0_101_294">
<rect width="206" height="53" fill="white"/>
</clipPath>
</defs>
</svg>
