<svg width="129" height="12" viewBox="0 0 129 12" fill="none" xmlns="http://www.w3.org/2000/svg">
<path opacity="0.61" d="M127.349 4.78484C122.616 4.31381 117.346 4.97325 112.54 4.98079C107.61 4.98833 102.679 4.99461 97.7491 5.00214C87.8878 5.01596 78.0266 5.03103 68.1671 5.04485C58.5332 5.05867 48.9064 5.11394 39.2743 5.23201C29.1187 5.35636 19.0301 6.01329 8.88509 6.30344C8.14836 6.3248 7.95625 10.1043 8.50968 10.1219C18.348 10.4221 28.1317 11.0966 37.9788 11.2336C47.8313 11.3705 57.6784 11.4471 67.5344 11.4772C77.1559 11.5061 86.7775 11.5363 96.4008 11.5652C101.329 11.5802 106.257 11.5953 111.186 11.6104C116.206 11.6255 121.717 12.3062 126.658 11.8327C128.008 11.7033 128.463 4.89538 127.349 4.78484Z" fill="#CFAAAA"/>
<path opacity="0.61" d="M128.058 0.334124C117.667 -0.332293 106.839 0.183592 96.3895 0.304331C85.8233 0.426639 75.2523 0.520721 64.6877 0.671253C43.5377 0.973101 22.3909 1.3659 1.25048 1.80416C-0.257615 1.83552 -0.38688 7.30799 0.782889 7.31191C21.8946 7.38325 43.0094 7.41775 64.1211 7.3417C74.6826 7.30407 85.2456 7.21861 95.807 7.15667C106.289 7.09552 117.156 7.41148 127.526 6.57571C129.234 6.43772 129.52 0.427423 128.056 0.33334L128.058 0.334124Z" fill="#CFAAAA"/>
</svg>
