<svg width="63" height="12" viewBox="0 0 63 12" fill="none" xmlns="http://www.w3.org/2000/svg">
<path opacity="0.61" d="M61.6962 5.16066C59.4048 4.71416 56.8531 5.33926 54.5259 5.3464C52.1389 5.35355 49.7511 5.3595 47.3641 5.36664C42.5893 5.37974 37.8145 5.39403 33.0406 5.40712C28.3759 5.42022 23.7146 5.47261 19.0507 5.58453C14.1334 5.70241 9.24855 6.32512 4.33635 6.60016C3.97963 6.62041 3.88661 10.2031 4.15458 10.2198C8.91828 10.5043 13.6555 11.1437 18.4235 11.2735C23.194 11.4033 27.962 11.4759 32.7342 11.5045C37.3929 11.5319 42.0517 11.5604 46.7113 11.5878C49.0974 11.6021 51.4835 11.6164 53.8705 11.6307C56.301 11.645 58.9696 12.2903 61.3616 11.8414C62.0154 11.7188 62.2355 5.26544 61.6962 5.16066Z" fill="#A5B2C1"/>
<path opacity="0.61" d="M62.5399 0.316722C57.4654 -0.314986 52.1773 0.17403 47.0739 0.288481C41.9137 0.404418 36.7511 0.4936 31.5917 0.636292C21.2626 0.922418 10.9351 1.29475 0.610698 1.7102C-0.125812 1.73992 -0.188941 6.92736 0.382341 6.93108C10.6927 6.99871 21.0046 7.03141 31.315 6.95932C36.4729 6.92365 41.6316 6.84264 46.7895 6.78393C51.9084 6.72596 57.216 7.02546 62.2803 6.23323C63.1143 6.10242 63.2538 0.405161 62.5391 0.315979L62.5399 0.316722Z" fill="#A5B2C1"/>
</svg>
