<svg width="115" height="12" viewBox="0 0 115 12" fill="none" xmlns="http://www.w3.org/2000/svg">
<path opacity="0.61" d="M113.528 4.78484C109.309 4.31381 104.611 4.97325 100.327 4.98079C95.9319 4.98833 91.5356 4.99461 87.1409 5.00214C78.3498 5.01596 69.5588 5.03103 60.7693 5.04485C52.181 5.05867 43.5989 5.11394 35.0122 5.23201C25.9587 5.35636 16.965 6.01329 7.92103 6.30344C7.26425 6.3248 7.09299 10.1043 7.58636 10.1219C16.357 10.4221 25.0789 11.0966 33.8573 11.2336C42.6405 11.3705 51.419 11.4471 60.2053 11.4772C68.7826 11.5061 77.36 11.5363 85.9389 11.5652C90.332 11.5802 94.7252 11.5953 99.1199 11.6104C103.595 11.6255 108.508 12.3062 112.912 11.8327C114.116 11.7033 114.521 4.89538 113.528 4.78484Z" fill="#A5C1B5"/>
<path opacity="0.61" d="M114.16 0.334124C104.897 -0.332293 95.2443 0.183592 85.9286 0.304331C76.5091 0.426639 67.0854 0.520721 57.6673 0.671253C38.8127 0.973101 19.9609 1.3659 1.11477 1.80416C-0.229656 1.83552 -0.344893 7.30799 0.697924 7.31191C19.5184 7.38325 38.3418 7.41775 57.1623 7.3417C66.5775 7.30407 75.9941 7.21861 85.4094 7.15667C94.7534 7.09552 104.442 7.41148 113.686 6.57571C115.209 6.43772 115.463 0.427423 114.159 0.33334L114.16 0.334124Z" fill="#A5C1B5"/>
</svg>
