<svg width="105" height="27" viewBox="0 0 105 27" fill="none" xmlns="http://www.w3.org/2000/svg">
<g clip-path="url(#clip0_126_7325)">
<path d="M19.2845 0.407617C19.3225 0.364595 19.3784 0.300061 19.3784 0.214015C19.3784 0.170992 19.3594 0.12797 19.3225 0.0849469C19.2845 0.0204127 19.2096 -0.00109863 19.1537 -0.00109863C19.1157 -0.00109863 19.0788 -0.00109863 19.0408 0.0204127C18.91 0.0849469 18.8351 0.170992 18.7412 0.278549C18.5724 0.536686 18.3846 0.772235 18.2347 1.05188C17.5226 2.29739 16.9413 3.60743 16.342 4.91855C13.7562 10.6535 11.2632 16.4529 9.20165 22.4245C8.88303 23.3484 8.52643 24.2713 8.07699 25.1091C7.96411 25.3458 7.87127 25.6673 7.64549 25.6673H7.6265C7.38279 25.6673 7.34586 25.3017 7.28889 25.0661C7.04518 24.2497 6.97028 23.3689 6.98927 22.489C7.00826 21.9093 7.02619 21.3511 7.06417 20.7703C7.17706 19.03 7.38279 17.2908 7.7204 15.5505C8.13291 13.209 8.82606 10.9321 9.61311 8.71961C9.98764 7.68814 10.4002 6.65775 10.7378 5.62628C10.7757 5.49721 10.8127 5.36814 10.8127 5.26058C10.8317 4.93791 10.7188 4.68085 10.4941 4.46574C10.3442 4.31516 10.2313 4.25062 10.1375 4.25062C9.98764 4.25062 9.85682 4.37969 9.70595 4.61632C9.42531 5.11 9.12463 5.62628 8.82501 6.14147C6.40795 10.0727 4.15864 14.1749 2.15305 18.4062C1.92833 18.9644 1.6287 19.4807 1.34701 20.0174C1.2721 20.1895 1.1972 20.3831 1.0094 20.4896C0.953487 20.2744 0.953487 20.0819 0.971422 19.8883V19.6517C1.12124 17.7404 1.55274 15.8711 2.02117 14.0028C2.73331 11.1031 3.78306 8.3109 4.96363 5.60476C5.26325 4.91748 5.58187 4.23019 5.82558 3.52139C5.88149 3.3493 5.91948 3.19872 5.93847 3.07073C5.95746 2.81259 5.84457 2.62006 5.61985 2.38344C5.50696 2.29739 5.39513 2.21135 5.26325 2.14681C5.07546 2.01774 4.90665 1.95321 4.75684 1.95321C4.53212 1.95321 4.34433 2.14681 4.1386 2.53294C4.08268 2.66201 4.00778 2.79108 3.96979 2.91907C3.16376 4.50876 2.60143 6.18342 2.11401 7.90218C1.51476 9.96405 1.08325 12.0689 0.689731 14.1738C0.390105 15.828 0.146395 17.4812 0.0335078 19.1784C0.0145174 19.4581 0.0145174 19.7367 -0.00341797 20.0163C-0.00341797 20.2529 0.0155724 20.4885 0.0524982 20.7251C0.146395 21.1973 0.427031 21.4769 0.764638 21.4769C0.989358 21.4769 1.21408 21.3694 1.4388 21.1327C1.58861 20.9391 1.73842 20.7251 1.8703 20.4885C2.24483 19.8872 2.54552 19.2215 2.86308 18.5557C4.30635 15.5269 5.82452 12.5196 7.51045 9.66289C7.58536 9.53382 7.64127 9.36173 7.77315 9.29719L7.81113 9.34021C7.75521 9.55533 7.71723 9.74786 7.64233 9.96297C6.78037 12.9703 6.31194 16.0421 6.04924 19.1559L6.03025 19.4785C5.97434 20.3809 5.97434 21.2618 5.97434 22.1631C5.97434 23.0645 6.03025 24.0099 6.18007 24.9338C6.25497 25.3845 6.34887 25.8147 6.59258 26.2008C6.76138 26.459 6.96711 26.587 7.2488 26.587C7.30472 26.587 7.37963 26.587 7.45453 26.5654C7.86705 26.4794 8.24158 26.2643 8.52327 25.8782C8.729 25.62 8.8978 25.3414 9.04762 25.0403C9.44114 24.267 9.75976 23.4291 10.0594 22.5912C10.9403 20.0991 11.7654 17.5866 12.7201 15.116C14.0136 11.7656 15.4189 8.45717 16.8991 5.17131C17.6112 3.5386 18.2295 1.84243 19.2792 0.403315L19.2845 0.407617Z" fill="#FAF5EE"/>
<path d="M22.1408 11.8226C21.8601 11.4322 21.5594 11.2483 21.2176 11.2483C21.0372 11.2483 20.8367 11.2945 20.6363 11.386C20.2153 11.5699 19.8334 11.8463 19.4526 12.1442C18.329 13.0639 17.3256 14.1674 16.3234 15.2946C16.4035 15.1332 16.4837 14.9493 16.5639 14.7891C17.9882 11.7538 19.6931 8.87989 21.4793 6.0974C21.82 5.59188 22.1207 5.10895 22.3623 4.55718C22.4425 4.37326 22.5026 4.21192 22.5026 4.07425C22.5227 3.79783 22.4425 3.56873 22.2821 3.33856C22.1218 3.10839 21.9614 3.01697 21.8211 3.01697C21.6607 3.01697 21.5204 3.10947 21.36 3.33856C21.0393 3.72899 20.7386 4.16675 20.4569 4.57977C18.7119 7.22352 17.3478 10.0985 16.0839 13.0413C15.0405 15.4559 13.2754 20.3487 12.2921 22.7859C12.232 22.9236 12.2119 23.0161 12.1919 23.1075C12.1919 23.2452 12.252 23.3377 12.3723 23.4065C12.4324 23.4528 12.5126 23.4528 12.5728 23.4528C12.7331 23.4528 12.8734 23.3603 12.9937 23.1538C13.0338 23.0849 13.0749 22.9935 13.114 22.901C15.6851 16.7563 15.8834 16.1281 19.0928 13.4779C19.6868 12.9875 20.2765 12.4658 20.9982 12.2593C21.1184 12.2367 21.2187 12.2131 21.2988 12.2131C21.5594 12.2131 21.6597 12.3508 21.6196 12.7186V12.8799C21.5394 13.5005 21.379 14.0986 21.1986 14.6966C21.0783 15.1569 20.3957 16.766 20.3557 16.8574C19.5528 18.6278 18.5906 20.2831 17.3668 21.7093C16.8256 22.3073 16.5797 22.5977 15.9383 23.0118C15.6576 23.2183 15.357 23.3796 15.0151 23.3796H14.935C14.6744 23.3796 14.5741 23.2645 14.514 22.943V22.6665C14.534 22.5289 14.5541 22.3675 14.5942 22.2298C14.7145 21.6092 13.9316 21.6092 13.8514 22.2073C13.8314 22.3223 13.8114 22.4138 13.8114 22.5063C13.7512 23.242 14.092 23.7475 14.7145 23.9776C14.8748 24.0465 15.0352 24.0701 15.1955 24.0701C15.5564 24.0701 15.9383 23.9088 16.2991 23.7486C17.2022 23.2882 17.6474 22.7913 18.3501 22.0094C19.9147 20.2852 21.1585 18.3073 22.0015 16.0313C22.1418 15.6861 22.4625 14.6751 22.4625 14.56L22.4826 14.4449C22.5026 14.3524 22.5227 14.261 22.5427 14.1685C22.5628 14.0308 22.5628 13.8695 22.5828 13.7318C22.6229 13.0187 22.5227 12.3755 22.1418 11.8237L22.1408 11.8226Z" fill="#FAF5EE"/>
<path d="M23.3846 9.10791V9.26817H23.0808V10.0748H22.893V9.26817H22.5891V9.10791H23.3846ZM24.4101 10.0748L24.3753 9.50587C24.3721 9.43166 24.3721 9.33916 24.3679 9.2359H24.3573C24.3331 9.32087 24.3046 9.43488 24.2771 9.52416L24.1062 10.0609H23.9111L23.7401 9.51017C23.7222 9.43596 23.6948 9.32195 23.6737 9.23698H23.6631C23.6631 9.32625 23.66 9.41875 23.6557 9.50695L23.6209 10.0759H23.4395L23.5091 9.10899H23.7918L23.9554 9.58224C23.9765 9.65645 23.9933 9.72851 24.0176 9.82747H24.0208C24.045 9.73819 24.0661 9.65645 24.0872 9.58546L24.2508 9.10899H24.523L24.5958 10.0759H24.408L24.4101 10.0748Z" fill="#FAF5EE"/>
<path d="M31.3616 0.408691H31.045V27H31.3616V0.408691Z" fill="#FAF5EE"/>
<path d="M50.0988 4.61314C50.0397 5.451 49.6726 6.48463 49.2906 7.56235L46.5159 15.3312H45.9135L43.3582 8.14638L40.7882 15.3312H40.171L36.3529 4.61314H38.5263L41.2577 12.7563L43.0934 7.38273L42.1091 4.61314H44.2234L46.9981 12.7563L48.76 7.57633C49.1714 6.37922 48.9952 5.79519 48.3485 4.61206H50.0956L50.0988 4.61314Z" fill="#FAF5EE"/>
<path d="M50.5682 15.3172V8.11627H52.3006L52.271 9.41878H52.3006C52.3006 9.41878 52.7848 7.93665 54.3273 7.93665C54.5478 7.93665 54.7672 7.99688 54.973 8.13132L54.7672 10.1222H54.6649C54.6649 10.1222 53.9011 9.10471 53.2258 9.10471C52.653 9.10471 52.3449 9.82319 52.3449 9.82319V15.3172H50.5682Z" fill="#FAF5EE"/>
<path d="M56.0449 5.91569C56.0449 5.39189 56.5144 4.92725 57.0725 4.92725C57.6306 4.92725 58.1001 5.39082 58.1001 5.91569C58.1001 6.44057 57.6159 6.91812 57.0725 6.91812C56.5292 6.91812 56.0449 6.45455 56.0449 5.91569ZM56.1473 15.3162V8.11631H57.9239V15.3162H56.1473Z" fill="#FAF5EE"/>
<path d="M59.8768 13.4306V8.53571H59.1572V8.32597C59.9063 7.83229 61.0225 7.0084 61.4772 6.17053H61.6386V8.11624H63.5767L63.5176 8.53571H61.6524L61.6228 13.1467C61.6228 14.2846 62.1662 14.5987 62.739 14.5987C63.0323 14.5987 63.3699 14.4793 63.7371 14.0749L63.8109 14.1502C63.3119 14.9289 62.6799 15.4527 61.7262 15.4527C60.7725 15.4527 59.8757 14.8246 59.8757 13.4317L59.8768 13.4306Z" fill="#FAF5EE"/>
<path d="M65.0601 13.4306V8.53571H64.3406V8.32597C65.0896 7.83229 66.2059 7.0084 66.6606 6.17053H66.822V8.11624H68.7601L68.701 8.53571H66.8368L66.8072 13.1467C66.8072 14.2846 67.3506 14.5987 67.9234 14.5987C68.2167 14.5987 68.5543 14.4793 68.9215 14.0749L68.9953 14.1502C68.4963 14.9289 67.8644 15.4527 66.9106 15.4527C65.9569 15.4527 65.0601 14.8246 65.0601 13.4317V13.4306Z" fill="#FAF5EE"/>
<path d="M75.8964 12.8466C75.735 13.6694 75.1326 15.4667 72.9603 15.4667C70.9484 15.4667 69.4218 13.9846 69.4218 11.7388C69.4218 9.49299 70.9484 7.93665 72.858 7.93665C75.3985 7.93665 75.8384 10.1674 75.8384 10.6761V10.8557H71.0665C71.0518 10.9601 71.0518 11.0655 71.0518 11.1698C71.0518 13.265 72.3589 14.1631 73.798 14.1631C75.0165 14.1631 75.5746 13.265 75.7804 12.7864L75.8975 12.8466H75.8964ZM71.0802 10.5417L74.1641 10.5116C74.1198 9.88342 73.8412 8.326 72.5931 8.326C71.7861 8.326 71.2132 9.20904 71.0813 10.5417H71.0802Z" fill="#FAF5EE"/>
<path d="M83.6485 10.0921V15.3161H81.8718C81.8866 12.8014 81.9014 12.2626 81.9014 10.4664C81.9014 9.32843 81.3433 8.89498 80.6976 8.89498C79.9338 8.89498 79.3176 9.58334 79.0096 10.0028V15.3172H77.2329V8.14638H78.9653V9.56828C79.3767 8.95413 80.2577 7.93665 81.5933 7.93665C82.5333 7.93665 83.6485 8.47551 83.6485 10.0921Z" fill="#FAF5EE"/>
<path d="M95.3793 11.6345C95.3793 14.0448 93.9107 15.4667 92.3989 15.4667C90.0936 15.4667 90.0789 12.9671 88.6989 15.5119H88.5227V4.61316H90.2994V9.22412H90.3141C90.8575 8.46047 91.577 7.93667 92.5455 7.93667C94.1312 7.93667 95.3793 9.43386 95.3793 11.6345ZM93.5288 11.9937C93.5288 10.1674 92.9707 8.64116 91.826 8.64116C91.2383 8.64116 90.7541 9.07569 90.2994 9.70382V12.7574C90.2994 12.7574 90.8722 15.0322 92.1636 15.0322C93.1184 15.0322 93.5288 13.8942 93.5288 11.9937Z" fill="#FAF5EE"/>
<path d="M102.061 8.11621C102.12 8.99925 101.944 9.94253 101.517 10.8406L99.2713 15.6904C98.2732 17.7705 97.0536 18.475 97.0536 18.475L96.0841 17.2026L96.1284 17.1133C96.1284 17.1133 98.0665 17.2478 98.8303 15.7807L99.0656 15.3171L95.8646 8.11729H97.847L100.035 13.2219C100.549 12.0689 101.048 10.946 101.151 10.7374C101.459 10.034 101.239 9.24018 100.519 8.11729H102.061V8.11621Z" fill="#FAF5EE"/>
<path d="M103.787 7.45374V7.61399H103.483V8.42067H103.295V7.61399H102.991V7.45374H103.787ZM104.812 8.42067L104.777 7.8517C104.774 7.77748 104.774 7.68498 104.77 7.58173H104.759C104.735 7.6667 104.707 7.78071 104.679 7.86998L104.508 8.40669H104.313L104.142 7.856C104.124 7.78178 104.097 7.66777 104.076 7.5828H104.065C104.065 7.67208 104.062 7.76457 104.058 7.85277L104.023 8.42175H103.842L103.911 7.45481H104.194L104.357 7.92806C104.379 8.00227 104.395 8.07434 104.42 8.17329H104.423C104.447 8.08402 104.468 8.00227 104.489 7.93129L104.653 7.45481H104.925L104.998 8.42175H104.81L104.812 8.42067Z" fill="#FAF5EE"/>
<path d="M88.2031 20.3605C87.9035 21.2135 87.6154 22.0352 87.3264 22.8569H87.2778C87.0679 22.2557 86.8579 21.6534 86.6301 21.0005C86.4011 21.6501 86.1891 22.2535 85.977 22.8559H85.9306C85.6362 22.033 85.3429 21.2081 85.0486 20.3831C85.3208 20.3025 85.3672 20.324 85.4505 20.566C85.631 21.093 85.8103 21.62 85.9897 22.1471C86.0076 22.1987 86.0276 22.2503 86.0603 22.3364C86.1015 22.2277 86.1321 22.1503 86.1585 22.0718C86.2735 21.733 86.38 21.3899 86.5045 21.0543C86.5615 20.9005 86.5699 20.7628 86.5003 20.6144C86.4644 20.5391 86.4454 20.4552 86.418 20.3734C86.7071 20.3078 86.7208 20.3154 86.8105 20.581C86.9888 21.1081 87.1681 21.6351 87.3485 22.1621C87.3633 22.2041 87.3812 22.2449 87.4087 22.3148C87.4382 22.2471 87.4604 22.2041 87.4772 22.1578C87.5922 21.8308 87.7009 21.5017 87.8201 21.1769C87.9182 20.9102 88.0016 20.6456 87.8265 20.3595H88.2052L88.2031 20.3605Z" fill="#FAF5EE"/>
<path d="M40.0497 22.8559L39.403 21.0006L38.7478 22.8591L38.7025 22.8559L37.8184 20.3746C38.1222 20.31 38.137 20.3186 38.2298 20.5886C38.4239 21.1576 38.6191 21.7276 38.828 22.3375C38.8618 22.2557 38.8839 22.2084 38.9008 22.1589C39.038 21.7556 39.1783 21.3533 39.3049 20.9457C39.3292 20.8683 39.3102 20.7715 39.2912 20.6876C39.268 20.5832 39.2258 20.4832 39.192 20.381C39.4568 20.3025 39.4948 20.3208 39.576 20.5628C39.7702 21.1382 39.9653 21.7137 40.1774 22.3396C40.2143 22.2461 40.2354 22.1987 40.2523 22.1503C40.3694 21.8126 40.4781 21.4706 40.6047 21.1372C40.7007 20.8833 40.7598 20.6359 40.5973 20.366H40.9476C40.7239 21.2232 40.3662 22.0223 40.1035 22.8548L40.0487 22.857L40.0497 22.8559Z" fill="#FAF5EE"/>
<path d="M72.7765 22.8032L71.9535 20.523L71.9135 20.5273C71.8491 21.3028 71.7847 22.0793 71.7204 22.8548L71.636 22.8473C71.7035 22.0212 71.771 21.1941 71.8407 20.3487C71.9314 20.3487 72.0095 20.3552 72.0854 20.3477C72.1867 20.3369 72.2321 20.3799 72.2658 20.4767C72.4526 21.007 72.6456 21.5351 72.8377 22.0632C72.8577 22.1191 72.883 22.174 72.9231 22.2708C72.9843 22.0901 73.0307 21.9513 73.0782 21.8126C73.2164 21.4157 73.3578 21.0199 73.4949 20.623C73.6036 20.31 73.6025 20.31 73.957 20.3692C74.0235 21.1855 74.091 22.0073 74.1585 22.843H73.8547C73.7893 22.0718 73.7228 21.2995 73.6574 20.5273L73.6194 20.524C73.3546 21.2823 73.0898 22.0417 72.825 22.7999L72.7744 22.8021L72.7765 22.8032Z" fill="#FAF5EE"/>
<path d="M41.4224 20.3304C41.7916 20.3509 42.1545 20.3358 42.5038 20.4004C43.0017 20.4929 43.1779 20.9887 42.8551 21.3296C42.7654 21.4243 42.6356 21.4813 42.5206 21.548C42.4742 21.5749 42.4172 21.5835 42.3455 21.6061C42.5776 22.0202 42.8034 22.4235 43.0313 22.8311C42.7433 22.8935 42.7338 22.8903 42.605 22.658C42.4478 22.3751 42.2928 22.0922 42.1356 21.8094C42.009 21.5824 42.0005 21.5792 41.7178 21.6405V22.8483H41.4224V20.3304ZM41.7178 20.4122C41.7178 20.779 41.7146 21.1092 41.722 21.4383C41.722 21.4727 41.7853 21.5329 41.8201 21.534C41.9826 21.5372 42.1482 21.5394 42.3075 21.5136C42.5555 21.4727 42.701 21.2619 42.7042 20.9747C42.7074 20.6994 42.5808 20.5047 42.3318 20.4584C42.1408 20.4229 41.9425 20.4283 41.7167 20.4133L41.7178 20.4122Z" fill="#FAF5EE"/>
<path d="M78.1677 22.8387C77.868 22.8849 77.867 22.886 77.7383 22.6548C77.5663 22.3482 77.3975 22.0395 77.2266 21.7319C77.1654 21.6233 77.0008 21.562 76.9027 21.6265C76.8689 21.648 76.8542 21.7212 76.8542 21.7706C76.8499 22.1234 76.852 22.4751 76.852 22.843H76.5566V20.3251C76.9354 20.353 77.3163 20.3541 77.6866 20.4165C77.9725 20.4649 78.1223 20.6671 78.1381 20.8994C78.155 21.1608 78.0178 21.3867 77.7594 21.5071C77.6781 21.5448 77.5916 21.5684 77.4808 21.6082C77.7108 22.0191 77.9377 22.4257 78.1677 22.8376V22.8387ZM76.852 21.5523C77.081 21.534 77.2941 21.5405 77.4967 21.4942C77.7383 21.4394 77.849 21.2189 77.8343 20.9188C77.8216 20.6617 77.6971 20.4982 77.4502 20.4541C77.2867 20.4251 77.1158 20.4294 76.9491 20.4294C76.9175 20.4294 76.8584 20.4832 76.8573 20.5122C76.851 20.8456 76.8531 21.1791 76.8531 21.5512L76.852 21.5523Z" fill="#FAF5EE"/>
<path d="M50.1621 22.8376C49.9321 22.9053 49.8086 22.8322 49.7147 22.6332C49.585 22.3557 49.4088 22.1008 49.2769 21.8244C49.1883 21.6383 49.0764 21.563 48.8538 21.6383V22.8483H48.5542V20.3293C48.9245 20.3519 49.2896 20.3487 49.6461 20.4025C49.9458 20.4466 50.1262 20.6682 50.142 20.9102C50.1589 21.1672 49.9922 21.4081 49.7147 21.5243C49.643 21.5544 49.567 21.5759 49.4763 21.6071C49.7063 22.0191 49.931 22.4235 50.1621 22.8376ZM48.8464 20.9811C48.8464 21.6028 48.8612 21.6168 49.4098 21.52C49.6303 21.4813 49.7717 21.3415 49.815 21.1199C49.8994 20.6886 49.6905 20.4358 49.24 20.4251C48.9776 20.4186 48.8464 20.547 48.8464 20.8101C48.8464 20.8671 48.8464 20.9241 48.8464 20.9811Z" fill="#FAF5EE"/>
<path d="M66.2522 21.5738C66.2501 22.2116 65.9283 22.701 65.4325 22.8505C64.6802 23.0785 63.9639 22.5569 63.9248 21.7416C63.9164 21.5566 63.9301 21.363 63.9744 21.1844C64.1221 20.6004 64.6053 20.2573 65.1772 20.31C65.7669 20.3649 66.19 20.8037 66.2448 21.4189C66.2501 21.4813 66.2512 21.5437 66.2522 21.5727V21.5738ZM65.9558 21.7201C65.9146 21.3468 65.8503 20.9962 65.6224 20.7004C65.2616 20.2326 64.6296 20.2885 64.3827 20.8273C64.1126 21.4168 64.1759 22.0008 64.561 22.5192C64.9092 22.9882 65.5643 22.8978 65.7922 22.3579C65.8766 22.1578 65.903 21.9341 65.9558 21.7201Z" fill="#FAF5EE"/>
<path d="M60.9001 20.3542C61.2747 20.3531 61.645 20.3133 62.0058 20.4305C62.5745 20.6144 62.8519 21.1114 62.7728 21.7976C62.7074 22.3676 62.2537 22.8237 61.7062 22.8527C61.4435 22.8667 61.1787 22.8549 60.9001 22.8549V20.3542ZM61.1934 20.4456V20.6392C61.1934 21.2544 61.1913 21.8686 61.1934 22.4838C61.1945 22.8097 61.1439 22.772 61.4804 22.772C62.0195 22.772 62.3318 22.5128 62.4225 21.974C62.4521 21.7965 62.4637 21.6104 62.4531 21.4308C62.4109 20.7048 61.9351 20.3294 61.1924 20.4456H61.1934Z" fill="#FAF5EE"/>
<path d="M55.5438 20.9048L55.2009 21.0393C55.1777 20.9629 55.1609 20.9048 55.1429 20.8457C55.0743 20.6187 54.9488 20.4424 54.7061 20.3972C54.4445 20.3488 54.2261 20.4424 54.0678 20.6553C53.8284 20.978 53.7651 21.3555 53.8125 21.7416C53.841 21.9729 53.9075 22.2138 54.0151 22.4182C54.2071 22.7828 54.627 22.9065 55.01 22.7591C55.1682 22.6978 55.259 22.5946 55.2537 22.4128C55.2484 22.231 55.2526 22.0482 55.2526 21.8653C55.2526 21.6875 55.3497 21.6119 55.5438 21.6384V22.6967C55.4025 22.7279 55.2642 22.7344 55.1461 22.7871C54.3116 23.1539 53.5108 22.643 53.4834 21.7223C53.4739 21.3835 53.5256 21.064 53.7186 20.779C54.1755 20.1046 55.1598 20.1616 55.5459 20.9059L55.5438 20.9048Z" fill="#FAF5EE"/>
<path d="M90.5367 22.2686L90.8543 22.2019C90.8743 22.2589 90.8828 22.3105 90.9071 22.3525C90.9756 22.4687 91.0315 22.5988 91.1254 22.6902C91.3164 22.8763 91.6572 22.8526 91.8302 22.6655C92.0001 22.4794 91.9811 22.1664 91.7764 21.9739C91.6994 21.9008 91.6076 21.8416 91.5158 21.7867C91.3417 21.6824 91.1592 21.5931 90.9872 21.4845C90.6697 21.2845 90.5716 21.0489 90.6602 20.7402C90.7372 20.4735 91.002 20.3014 91.3364 20.3068C91.7036 20.3132 91.9768 20.4864 92.1784 20.823L91.846 20.9026C91.8028 20.7994 91.7701 20.6972 91.7184 20.6068C91.6129 20.4229 91.4145 20.3466 91.2088 20.3971C91.0347 20.4391 90.9187 20.5746 90.9018 20.7607C90.8849 20.9532 90.9777 21.0909 91.1328 21.1844C91.3597 21.321 91.5928 21.4469 91.8207 21.5813C92.0138 21.6953 92.1805 21.833 92.2248 22.0771C92.2881 22.4181 92.1245 22.7203 91.8049 22.8408C91.2795 23.0376 90.695 22.7827 90.5367 22.2697V22.2686Z" fill="#FAF5EE"/>
<path d="M52.2595 20.8274L51.9399 20.8994C51.886 20.7822 51.8502 20.666 51.7848 20.5692C51.6539 20.3746 51.3828 20.3251 51.1823 20.4455C51.0072 20.551 50.926 20.8048 51.0399 20.9823C51.1095 21.0909 51.2245 21.1791 51.3364 21.2501C51.559 21.3931 51.7964 21.5125 52.0221 21.6513C52.2426 21.7868 52.3471 21.9944 52.3292 22.2557C52.3081 22.5612 52.1456 22.7612 51.8555 22.8527C51.3353 23.0183 50.7973 22.7709 50.6295 22.2729L50.9397 22.1966C50.9808 22.2987 51.0125 22.3956 51.0579 22.4848C51.1665 22.7021 51.3395 22.8247 51.5854 22.8107C51.7647 22.801 51.9145 22.7268 51.9926 22.5526C52.0707 22.3773 52.0559 22.1987 51.9356 22.0535C51.8512 21.9513 51.7394 21.8664 51.6276 21.7943C51.4472 21.6792 51.252 21.5878 51.0705 21.4738C50.7667 21.2823 50.6707 21.0565 50.7477 20.7585C50.8173 20.4896 51.0378 20.3315 51.3733 20.3068C51.7436 20.2799 52.0992 20.4853 52.2595 20.8241V20.8274Z" fill="#FAF5EE"/>
<path d="M81.4098 20.9005C81.2916 20.9489 81.1893 20.9897 81.0732 21.037C81.0448 20.9467 81.0226 20.866 80.9931 20.7886C80.819 20.3487 80.3463 20.2465 80.0066 20.5735C79.9781 20.6004 79.9518 20.6316 79.9285 20.6628C79.5624 21.1392 79.6004 22.1266 80.0066 22.5654C80.186 22.759 80.4075 22.8634 80.6744 22.7999C80.9319 22.7386 81.0353 22.531 81.1028 22.2976C81.1133 22.261 81.1249 22.2234 81.1397 22.1718L81.4763 22.2675C81.3075 22.6418 81.0331 22.8451 80.6544 22.8881C79.9338 22.9698 79.4063 22.5192 79.3514 21.7824C79.3251 21.4275 79.3873 21.0898 79.5846 20.7875C79.9887 20.1691 80.8939 20.1379 81.3096 20.7284C81.3444 20.7778 81.3708 20.8327 81.4098 20.9005Z" fill="#FAF5EE"/>
<path d="M69.9965 20.4413L70.2487 20.2875C70.5736 21.1393 70.8954 21.9836 71.2183 22.829C70.9355 22.9 70.9207 22.8925 70.8279 22.6397C70.7614 22.458 70.6929 22.2784 70.6296 22.0955C70.6 22.0095 70.5568 21.9675 70.4597 21.9707C70.2403 21.9783 70.0208 21.9783 69.8024 21.9707C69.698 21.9675 69.6505 22.0116 69.6231 22.1063C69.564 22.3138 69.4912 22.5171 69.4395 22.7269C69.4089 22.8516 69.3551 22.8871 69.2338 22.8376C69.4606 22.2353 69.6864 21.6362 69.9121 21.0361C69.9364 20.9726 69.9712 20.9113 69.9849 20.8457C70.0103 20.7231 70.024 20.5972 70.0419 20.4725L69.9955 20.4402L69.9965 20.4413ZM70.5272 21.8395C70.3911 21.4749 70.2666 21.1393 70.1231 20.7532C69.9786 21.1426 69.8531 21.4824 69.7201 21.8395H70.5283H70.5272Z" fill="#FAF5EE"/>
<path d="M83.8542 22.8365C83.6552 22.8717 83.5243 22.8039 83.4617 22.6332C83.3932 22.4472 83.3288 22.2589 83.2486 22.0772C83.2275 22.0298 83.1558 21.9793 83.1051 21.9771C82.8804 21.9664 82.6557 21.9771 82.431 21.9696C82.3339 21.9664 82.2875 22.0062 82.2622 22.0944C82.1999 22.3063 82.1282 22.516 82.0712 22.729C82.0417 22.8387 81.9974 22.8892 81.8687 22.8333C81.9035 22.7397 81.9383 22.6462 81.9742 22.5526C82.1904 21.9793 82.4109 21.4071 82.6198 20.8317C82.6599 20.7209 82.6578 20.595 82.6757 20.4757L82.6188 20.452C82.7021 20.3993 82.7855 20.3477 82.8846 20.2853C83.2106 21.1414 83.5324 21.9879 83.8553 22.8365H83.8542ZM83.1611 21.8373C83.026 21.4738 82.9005 21.1339 82.7739 20.794L82.7348 20.8015C82.6114 21.1404 82.488 21.4792 82.3582 21.8373H83.1621H83.1611Z" fill="#FAF5EE"/>
<path d="M56.0565 20.3594H56.3571C56.3571 20.4369 56.3571 20.5036 56.3571 20.5703C56.3593 21.0715 56.3487 21.5738 56.3666 22.0739C56.3835 22.5514 56.661 22.815 57.0714 22.7827C57.3615 22.7601 57.5799 22.573 57.639 22.2847C57.659 22.1847 57.6685 22.0814 57.6685 21.9792C57.6717 21.5006 57.6696 21.022 57.6696 20.5434C57.6696 20.4821 57.6696 20.4218 57.6696 20.3605L57.7097 20.3455C57.7276 20.3702 57.7614 20.396 57.7614 20.4207C57.7614 21.0016 57.7856 21.5845 57.7487 22.1632C57.7129 22.7214 57.2391 23.0107 56.6715 22.8698C56.3086 22.7805 56.0733 22.5246 56.0607 22.1288C56.0406 21.5436 56.0554 20.9575 56.0554 20.3573L56.0565 20.3594Z" fill="#FAF5EE"/>
<path d="M74.9541 21.4834H75.911L75.9163 21.5436C75.7696 21.5834 75.6135 21.5566 75.4626 21.5609C75.3002 21.5662 75.1377 21.5619 74.9583 21.5619V22.7859H76.0334V22.8376H74.6471V20.3627H76.0133L76.0155 20.4068H74.9531V21.4834H74.9541Z" fill="#FAF5EE"/>
<path d="M90.0398 22.8473H88.6493V20.3649H90.0103C89.6674 20.4584 89.315 20.3982 88.9458 20.438C88.9458 20.7585 88.9426 21.0747 88.951 21.391C88.951 21.4211 89.0333 21.4716 89.0787 21.4727C89.3034 21.4813 89.5281 21.477 89.7528 21.477C89.8066 21.477 89.8594 21.477 89.9132 21.477L89.9195 21.5362C89.8731 21.5448 89.8267 21.5598 89.7792 21.5609C89.5429 21.5631 89.3076 21.5652 89.0713 21.5609C88.9774 21.5588 88.9415 21.5932 88.9426 21.69C88.9468 22.0083 88.9468 22.3278 88.9426 22.6461C88.9405 22.7526 88.9816 22.7838 89.0818 22.7817C89.3456 22.7763 89.6104 22.7795 89.8742 22.7817C89.9311 22.7817 89.9871 22.7914 90.044 22.7957L90.0409 22.8484L90.0398 22.8473Z" fill="#FAF5EE"/>
<path d="M46.6458 20.3628H48.0067L48.0088 20.4112H46.9496V21.4781H47.9107V21.5448H46.9517V22.7817H48.0289V22.8355H46.6458V20.3617V20.3628Z" fill="#FAF5EE"/>
<path d="M66.9707 21.4856H67.9265L67.9307 21.5362C67.8875 21.5437 67.8442 21.5566 67.7999 21.5566C67.5752 21.5588 67.3505 21.5642 67.1258 21.5555C66.9949 21.5502 66.9485 21.5878 66.9527 21.7266C66.9622 22.0955 66.9559 22.4644 66.9559 22.8452H66.6658V20.366H68.0246V20.4101H66.9717V21.4856H66.9707Z" fill="#FAF5EE"/>
<path d="M46.2079 20.4111H45.3945V22.8452H45.0854V20.4176H44.254L44.2572 20.366H46.2079V20.4111Z" fill="#FAF5EE"/>
<path d="M93.7599 20.4047V22.8463H93.4624V20.4187H92.6257L92.6278 20.3671H94.5744L94.5775 20.4047H93.7599Z" fill="#FAF5EE"/>
<path d="M59.0465 20.3595H59.3482V22.7838H60.4043V22.8365H59.0476V20.3595H59.0465Z" fill="#FAF5EE"/>
<path d="M43.5292 20.3595H43.8098V22.8473H43.5292V20.3595Z" fill="#FAF5EE"/>
<path d="M58.2573 20.3573H58.5411V22.844H58.2573V20.3573Z" fill="#FAF5EE"/>
<path d="M78.94 22.8494H78.6541V20.3627H78.94V22.8494Z" fill="#FAF5EE"/>
</g>
<defs>
<clipPath id="clip0_126_7325">
<rect width="105" height="27" fill="white"/>
</clipPath>
</defs>
</svg>
