<svg width="105" height="27" viewBox="0 0 105 27" fill="none" xmlns="http://www.w3.org/2000/svg">
<g clip-path="url(#clip0_126_812)">
<path d="M19.2844 0.407617C19.3224 0.364595 19.3783 0.300061 19.3783 0.214015C19.3783 0.170992 19.3593 0.12797 19.3224 0.0849469C19.2844 0.0204127 19.2095 -0.00109863 19.1536 -0.00109863C19.1156 -0.00109863 19.0787 -0.00109863 19.0407 0.0204127C18.9099 0.0849469 18.835 0.170992 18.7411 0.278549C18.5723 0.536686 18.3845 0.772235 18.2347 1.05188C17.5225 2.29739 16.9412 3.60743 16.342 4.91855C13.7561 10.6535 11.2631 16.4529 9.20159 22.4245C8.88297 23.3484 8.52637 24.2713 8.07693 25.1091C7.96405 25.3458 7.8712 25.6673 7.64543 25.6673H7.62644C7.38273 25.6673 7.3458 25.3017 7.28883 25.0661C7.04512 24.2497 6.97022 23.3689 6.98921 22.489C7.0082 21.9093 7.02613 21.3511 7.06411 20.7703C7.177 19.03 7.38273 17.2908 7.72034 15.5505C8.13285 13.209 8.826 10.9321 9.61305 8.71961C9.98758 7.68814 10.4001 6.65775 10.7377 5.62628C10.7757 5.49721 10.8126 5.36814 10.8126 5.26058C10.8316 4.93791 10.7187 4.68085 10.494 4.46574C10.3442 4.31516 10.2313 4.25062 10.1374 4.25062C9.98758 4.25062 9.85676 4.37969 9.70589 4.61632C9.42525 5.11 9.12457 5.62628 8.82494 6.14147C6.40789 10.0727 4.15858 14.1749 2.15299 18.4062C1.92827 18.9644 1.62864 19.4807 1.34695 20.0174C1.27204 20.1895 1.19714 20.3831 1.00934 20.4896C0.953426 20.2744 0.953426 20.0819 0.971361 19.8883V19.6517C1.12117 17.7404 1.55268 15.8711 2.02111 14.0028C2.73325 11.1031 3.78299 8.3109 4.96356 5.60476C5.26319 4.91748 5.58181 4.23019 5.82552 3.52139C5.88143 3.3493 5.91941 3.19872 5.9384 3.07073C5.9574 2.81259 5.84451 2.62006 5.61979 2.38344C5.5069 2.29739 5.39507 2.21135 5.26319 2.14681C5.0754 2.01774 4.90659 1.95321 4.75678 1.95321C4.53206 1.95321 4.34427 2.14681 4.13854 2.53294C4.08262 2.66201 4.00771 2.79108 3.96973 2.91907C3.1637 4.50876 2.60137 6.18342 2.11395 7.90218C1.5147 9.96405 1.08319 12.0689 0.68967 14.1738C0.390044 15.828 0.146334 17.4812 0.0334468 19.1784C0.0144564 19.4581 0.0144564 19.7367 -0.003479 20.0163C-0.003479 20.2529 0.0155114 20.4885 0.0524372 20.7251C0.146334 21.1973 0.42697 21.4769 0.764577 21.4769C0.989297 21.4769 1.21402 21.3694 1.43874 21.1327C1.58855 20.9391 1.73836 20.7251 1.87024 20.4885C2.24477 19.8872 2.54545 19.2215 2.86302 18.5557C4.30629 15.5269 5.82446 12.5196 7.51039 9.66289C7.58529 9.53382 7.64121 9.36173 7.77309 9.29719L7.81107 9.34021C7.75515 9.55533 7.71717 9.74786 7.64227 9.96297C6.78031 12.9703 6.31188 16.0421 6.04918 19.1559L6.03019 19.4785C5.97428 20.3809 5.97428 21.2618 5.97428 22.1631C5.97428 23.0645 6.03019 24.0099 6.18 24.9338C6.25491 25.3845 6.34881 25.8147 6.59252 26.2008C6.76132 26.459 6.96705 26.587 7.24874 26.587C7.30466 26.587 7.37956 26.587 7.45447 26.5654C7.86698 26.4794 8.24152 26.2643 8.52321 25.8782C8.72894 25.62 8.89774 25.3414 9.04755 25.0403C9.44108 24.267 9.75969 23.4291 10.0593 22.5912C10.9403 20.0991 11.7653 17.5866 12.7201 15.116C14.0135 11.7656 15.4188 8.45717 16.899 5.17131C17.6112 3.5386 18.2294 1.84243 19.2792 0.403315L19.2844 0.407617Z" fill="#111112"/>
<path d="M22.1407 11.8226C21.8601 11.4322 21.5594 11.2483 21.2175 11.2483C21.0371 11.2483 20.8367 11.2945 20.6362 11.386C20.2153 11.5699 19.8334 11.8463 19.4525 12.1442C18.3289 13.0639 17.3256 14.1674 16.3233 15.2946C16.4035 15.1332 16.4837 14.9493 16.5638 14.7891C17.9881 11.7538 19.693 8.87989 21.4792 6.0974C21.82 5.59188 22.1206 5.10895 22.3622 4.55718C22.4424 4.37326 22.5026 4.21192 22.5026 4.07425C22.5226 3.79783 22.4424 3.56873 22.2821 3.33856C22.1217 3.10839 21.9613 3.01697 21.821 3.01697C21.6607 3.01697 21.5203 3.10947 21.36 3.33856C21.0392 3.72899 20.7386 4.16675 20.4569 4.57977C18.7119 7.22352 17.3477 10.0985 16.0838 13.0413C15.0404 15.4559 13.2753 20.3487 12.2921 22.7859C12.2319 22.9236 12.2119 23.0161 12.1918 23.1075C12.1918 23.2452 12.252 23.3377 12.3722 23.4065C12.4324 23.4528 12.5126 23.4528 12.5727 23.4528C12.7331 23.4528 12.8734 23.3603 12.9937 23.1538C13.0337 23.0849 13.0749 22.9935 13.1139 22.901C15.685 16.7563 15.8834 16.1281 19.0927 13.4779C19.6867 12.9875 20.2765 12.4658 20.9981 12.2593C21.1184 12.2367 21.2186 12.2131 21.2988 12.2131C21.5594 12.2131 21.6596 12.3508 21.6195 12.7186V12.8799C21.5393 13.5005 21.379 14.0986 21.1986 14.6966C21.0783 15.1569 20.3957 16.766 20.3556 16.8574C19.5527 18.6278 18.5905 20.2831 17.3667 21.7093C16.8255 22.3073 16.5797 22.5977 15.9382 23.0118C15.6576 23.2183 15.3569 23.3796 15.0151 23.3796H14.9349C14.6743 23.3796 14.5741 23.2645 14.5139 22.943V22.6665C14.534 22.5289 14.554 22.3675 14.5941 22.2298C14.7144 21.6092 13.9316 21.6092 13.8514 22.2073C13.8313 22.3223 13.8113 22.4138 13.8113 22.5063C13.7512 23.242 14.0919 23.7475 14.7144 23.9776C14.8748 24.0465 15.0351 24.0701 15.1955 24.0701C15.5563 24.0701 15.9382 23.9088 16.299 23.7486C17.2021 23.2882 17.6474 22.7913 18.35 22.0094C19.9146 20.2852 21.1585 18.3073 22.0014 16.0313C22.1417 15.6861 22.4625 14.6751 22.4625 14.56L22.4825 14.4449C22.5026 14.3524 22.5226 14.261 22.5427 14.1685C22.5627 14.0308 22.5627 13.8695 22.5827 13.7318C22.6228 13.0187 22.5226 12.3755 22.1417 11.8237L22.1407 11.8226Z" fill="#111112"/>
<path d="M23.3845 9.10791V9.26817H23.0807V10.0748H22.8929V9.26817H22.5891V9.10791H23.3845ZM24.41 10.0748L24.3752 9.50587C24.372 9.43166 24.372 9.33916 24.3678 9.2359H24.3573C24.333 9.32087 24.3045 9.43488 24.2771 9.52416L24.1062 10.0609H23.911L23.7401 9.51017C23.7221 9.43596 23.6947 9.32195 23.6736 9.23698H23.6631C23.6631 9.32625 23.6599 9.41875 23.6557 9.50695L23.6209 10.0759H23.4394L23.509 9.10899H23.7918L23.9553 9.58224C23.9764 9.65645 23.9933 9.72851 24.0175 9.82747H24.0207C24.045 9.73819 24.0661 9.65645 24.0872 9.58546L24.2507 9.10899H24.5229L24.5957 10.0759H24.4079L24.41 10.0748Z" fill="#111112"/>
<path d="M31.3616 0.408691H31.0451V27H31.3616V0.408691Z" fill="#111112"/>
<path d="M50.0988 4.61314C50.0397 5.451 49.6726 6.48463 49.2906 7.56235L46.5159 15.3312H45.9135L43.3582 8.14638L40.7882 15.3312H40.171L36.3529 4.61314H38.5263L41.2577 12.7563L43.0934 7.38273L42.1091 4.61314H44.2234L46.9981 12.7563L48.76 7.57633C49.1714 6.37922 48.9952 5.79519 48.3485 4.61206H50.0956L50.0988 4.61314Z" fill="#111112"/>
<path d="M50.5682 15.3172V8.11627H52.3006L52.271 9.41878H52.3006C52.3006 9.41878 52.7848 7.93665 54.3273 7.93665C54.5478 7.93665 54.7672 7.99688 54.973 8.13132L54.7672 10.1222H54.6649C54.6649 10.1222 53.9011 9.10471 53.2258 9.10471C52.653 9.10471 52.3449 9.82319 52.3449 9.82319V15.3172H50.5682Z" fill="#111112"/>
<path d="M56.0449 5.91569C56.0449 5.39189 56.5144 4.92725 57.0725 4.92725C57.6306 4.92725 58.1 5.39082 58.1 5.91569C58.1 6.44057 57.6158 6.91812 57.0725 6.91812C56.5291 6.91812 56.0449 6.45455 56.0449 5.91569ZM56.1472 15.3162V8.11631H57.9239V15.3162H56.1472Z" fill="#111112"/>
<path d="M59.8768 13.4306V8.53571H59.1572V8.32597C59.9063 7.83229 61.0225 7.0084 61.4772 6.17053H61.6386V8.11624H63.5767L63.5176 8.53571H61.6524L61.6228 13.1467C61.6228 14.2846 62.1662 14.5987 62.739 14.5987C63.0323 14.5987 63.3699 14.4793 63.7371 14.0749L63.8109 14.1502C63.3119 14.9289 62.6799 15.4527 61.7262 15.4527C60.7725 15.4527 59.8757 14.8246 59.8757 13.4317L59.8768 13.4306Z" fill="#111112"/>
<path d="M65.06 13.4306V8.53571H64.3405V8.32597C65.0896 7.83229 66.2058 7.0084 66.6605 6.17053H66.8219V8.11624H68.76L68.7009 8.53571H66.8367L66.8072 13.1467C66.8072 14.2846 67.3505 14.5987 67.9234 14.5987C68.2167 14.5987 68.5543 14.4793 68.9214 14.0749L68.9953 14.1502C68.4962 14.9289 67.8643 15.4527 66.9106 15.4527C65.9568 15.4527 65.06 14.8246 65.06 13.4317V13.4306Z" fill="#111112"/>
<path d="M75.8964 12.8466C75.735 13.6694 75.1326 15.4667 72.9603 15.4667C70.9484 15.4667 69.4218 13.9846 69.4218 11.7388C69.4218 9.49299 70.9484 7.93665 72.858 7.93665C75.3985 7.93665 75.8384 10.1674 75.8384 10.6761V10.8557H71.0665C71.0518 10.9601 71.0518 11.0655 71.0518 11.1698C71.0518 13.265 72.3589 14.1631 73.798 14.1631C75.0165 14.1631 75.5746 13.265 75.7804 12.7864L75.8975 12.8466H75.8964ZM71.0802 10.5417L74.1641 10.5116C74.1198 9.88342 73.8412 8.326 72.5931 8.326C71.7861 8.326 71.2132 9.20904 71.0813 10.5417H71.0802Z" fill="#111112"/>
<path d="M83.6485 10.0921V15.3161H81.8718C81.8866 12.8014 81.9014 12.2626 81.9014 10.4664C81.9014 9.32843 81.3433 8.89498 80.6976 8.89498C79.9338 8.89498 79.3176 9.58334 79.0096 10.0028V15.3172H77.2329V8.14638H78.9653V9.56828C79.3767 8.95413 80.2577 7.93665 81.5933 7.93665C82.5333 7.93665 83.6485 8.47551 83.6485 10.0921Z" fill="#111112"/>
<path d="M95.3793 11.6345C95.3793 14.0448 93.9107 15.4667 92.3989 15.4667C90.0936 15.4667 90.0789 12.9671 88.6989 15.5119H88.5227V4.61316H90.2994V9.22412H90.3141C90.8575 8.46047 91.577 7.93667 92.5455 7.93667C94.1312 7.93667 95.3793 9.43386 95.3793 11.6345ZM93.5288 11.9937C93.5288 10.1674 92.9707 8.64116 91.826 8.64116C91.2383 8.64116 90.7541 9.07569 90.2994 9.70382V12.7574C90.2994 12.7574 90.8722 15.0322 92.1636 15.0322C93.1184 15.0322 93.5288 13.8942 93.5288 11.9937Z" fill="#111112"/>
<path d="M102.061 8.11621C102.12 8.99925 101.944 9.94253 101.517 10.8406L99.2712 15.6904C98.2732 17.7705 97.0536 18.475 97.0536 18.475L96.084 17.2026L96.1283 17.1133C96.1283 17.1133 98.0664 17.2478 98.8302 15.7807L99.0655 15.3171L95.8646 8.11729H97.8469L100.035 13.2219C100.549 12.0689 101.048 10.946 101.151 10.7374C101.459 10.034 101.239 9.24018 100.519 8.11729H102.061V8.11621Z" fill="#111112"/>
<path d="M103.787 7.45374V7.61399H103.483V8.42067H103.295V7.61399H102.991V7.45374H103.787ZM104.812 8.42067L104.777 7.8517C104.774 7.77748 104.774 7.68498 104.77 7.58173H104.759C104.735 7.6667 104.707 7.78071 104.679 7.86998L104.508 8.40669H104.313L104.142 7.856C104.124 7.78178 104.097 7.66777 104.076 7.5828H104.065C104.065 7.67208 104.062 7.76457 104.058 7.85277L104.023 8.42175H103.842L103.911 7.45481H104.194L104.357 7.92806C104.379 8.00227 104.395 8.07434 104.42 8.17329H104.423C104.447 8.08402 104.468 8.00227 104.489 7.93129L104.653 7.45481H104.925L104.998 8.42175H104.81L104.812 8.42067Z" fill="#111112"/>
<path d="M88.203 20.3605C87.9034 21.2135 87.6153 22.0352 87.3263 22.8569H87.2777C87.0678 22.2557 86.8578 21.6534 86.6299 21.0005C86.401 21.6501 86.1889 22.2535 85.9769 22.8559H85.9305C85.6361 22.033 85.3428 21.2081 85.0485 20.3831C85.3207 20.3025 85.3671 20.324 85.4504 20.566C85.6308 21.093 85.8102 21.62 85.9895 22.1471C86.0075 22.1987 86.0275 22.2503 86.0602 22.3364C86.1014 22.2277 86.132 22.1503 86.1583 22.0718C86.2733 21.733 86.3799 21.3899 86.5044 21.0543C86.5614 20.9005 86.5698 20.7628 86.5002 20.6144C86.4643 20.5391 86.4453 20.4552 86.4179 20.3734C86.707 20.3078 86.7207 20.3154 86.8103 20.581C86.9886 21.1081 87.168 21.6351 87.3484 22.1621C87.3632 22.2041 87.3811 22.2449 87.4085 22.3148C87.4381 22.2471 87.4602 22.2041 87.4771 22.1578C87.5921 21.8308 87.7008 21.5017 87.82 21.1769C87.9181 20.9102 88.0015 20.6456 87.8263 20.3595H88.2051L88.203 20.3605Z" fill="#111112"/>
<path d="M40.0497 22.8559L39.4029 21.0006L38.7478 22.8591L38.7024 22.8559L37.8183 20.3746C38.1221 20.31 38.1369 20.3186 38.2298 20.5886C38.4239 21.1576 38.6191 21.7276 38.828 22.3375C38.8617 22.2557 38.8839 22.2084 38.9008 22.1589C39.0379 21.7556 39.1782 21.3533 39.3048 20.9457C39.3291 20.8683 39.3101 20.7715 39.2911 20.6876C39.2679 20.5832 39.2257 20.4832 39.1919 20.381C39.4567 20.3025 39.4947 20.3208 39.576 20.5628C39.7701 21.1382 39.9653 21.7137 40.1773 22.3396C40.2143 22.2461 40.2354 22.1987 40.2522 22.1503C40.3693 21.8126 40.478 21.4706 40.6046 21.1372C40.7006 20.8833 40.7597 20.6359 40.5972 20.366H40.9475C40.7238 21.2232 40.3662 22.0223 40.1035 22.8548L40.0486 22.857L40.0497 22.8559Z" fill="#111112"/>
<path d="M72.7765 22.8032L71.9535 20.523L71.9135 20.5273C71.8491 21.3028 71.7847 22.0793 71.7204 22.8548L71.636 22.8473C71.7035 22.0212 71.771 21.1941 71.8407 20.3487C71.9314 20.3487 72.0095 20.3552 72.0854 20.3477C72.1867 20.3369 72.2321 20.3799 72.2658 20.4767C72.4526 21.007 72.6456 21.5351 72.8377 22.0632C72.8577 22.1191 72.883 22.174 72.9231 22.2708C72.9843 22.0901 73.0307 21.9513 73.0782 21.8126C73.2164 21.4157 73.3578 21.0199 73.4949 20.623C73.6036 20.31 73.6025 20.31 73.957 20.3692C74.0235 21.1855 74.091 22.0073 74.1585 22.843H73.8547C73.7893 22.0718 73.7228 21.2995 73.6574 20.5273L73.6194 20.524C73.3546 21.2823 73.0898 22.0417 72.825 22.7999L72.7744 22.8021L72.7765 22.8032Z" fill="#111112"/>
<path d="M41.4222 20.3304C41.7915 20.3509 42.1544 20.3358 42.5036 20.4004C43.0016 20.4929 43.1778 20.9887 42.855 21.3296C42.7653 21.4243 42.6355 21.4813 42.5205 21.548C42.4741 21.5749 42.4171 21.5835 42.3454 21.6061C42.5775 22.0202 42.8033 22.4235 43.0311 22.8311C42.7431 22.8935 42.7336 22.8903 42.6049 22.658C42.4477 22.3751 42.2926 22.0922 42.1354 21.8094C42.0088 21.5824 42.0004 21.5792 41.7176 21.6405V22.8483H41.4222V20.3304ZM41.7176 20.4122C41.7176 20.779 41.7145 21.1092 41.7219 21.4383C41.7219 21.4727 41.7852 21.5329 41.82 21.534C41.9825 21.5372 42.1481 21.5394 42.3074 21.5136C42.5553 21.4727 42.7009 21.2619 42.7041 20.9747C42.7073 20.6994 42.5807 20.5047 42.3317 20.4584C42.1407 20.4229 41.9424 20.4283 41.7166 20.4133L41.7176 20.4122Z" fill="#111112"/>
<path d="M78.1676 22.8387C77.868 22.8849 77.8669 22.886 77.7382 22.6548C77.5662 22.3482 77.3974 22.0395 77.2265 21.7319C77.1653 21.6233 77.0007 21.562 76.9026 21.6265C76.8689 21.648 76.8541 21.7212 76.8541 21.7706C76.8499 22.1234 76.852 22.4751 76.852 22.843H76.5566V20.3251C76.9353 20.353 77.3162 20.3541 77.6865 20.4165C77.9724 20.4649 78.1222 20.6671 78.1381 20.8994C78.1549 21.1608 78.0178 21.3867 77.7593 21.5071C77.6781 21.5448 77.5916 21.5684 77.4808 21.6082C77.7108 22.0191 77.9376 22.4257 78.1676 22.8376V22.8387ZM76.852 21.5523C77.0809 21.534 77.294 21.5405 77.4966 21.4942C77.7382 21.4394 77.849 21.2189 77.8342 20.9188C77.8215 20.6617 77.6971 20.4982 77.4502 20.4541C77.2867 20.4251 77.1157 20.4294 76.949 20.4294C76.9174 20.4294 76.8583 20.4832 76.8573 20.5122C76.8509 20.8456 76.853 21.1791 76.853 21.5512L76.852 21.5523Z" fill="#111112"/>
<path d="M50.1621 22.8376C49.9321 22.9053 49.8086 22.8322 49.7147 22.6332C49.585 22.3557 49.4088 22.1008 49.2769 21.8244C49.1883 21.6383 49.0764 21.563 48.8538 21.6383V22.8483H48.5542V20.3293C48.9245 20.3519 49.2896 20.3487 49.6461 20.4025C49.9458 20.4466 50.1262 20.6682 50.142 20.9102C50.1589 21.1672 49.9922 21.4081 49.7147 21.5243C49.643 21.5544 49.567 21.5759 49.4763 21.6071C49.7063 22.0191 49.931 22.4235 50.1621 22.8376ZM48.8464 20.9811C48.8464 21.6028 48.8612 21.6168 49.4098 21.52C49.6303 21.4813 49.7717 21.3415 49.815 21.1199C49.8994 20.6886 49.6905 20.4358 49.24 20.4251C48.9776 20.4186 48.8464 20.547 48.8464 20.8101C48.8464 20.8671 48.8464 20.9241 48.8464 20.9811Z" fill="#111112"/>
<path d="M66.2522 21.5738C66.2501 22.2116 65.9283 22.701 65.4325 22.8505C64.6802 23.0785 63.9639 22.5569 63.9248 21.7416C63.9164 21.5566 63.9301 21.363 63.9744 21.1844C64.1221 20.6004 64.6053 20.2573 65.1772 20.31C65.7669 20.3649 66.19 20.8037 66.2448 21.4189C66.2501 21.4813 66.2512 21.5437 66.2522 21.5727V21.5738ZM65.9558 21.7201C65.9146 21.3468 65.8503 20.9962 65.6224 20.7004C65.2616 20.2326 64.6296 20.2885 64.3827 20.8273C64.1126 21.4168 64.1759 22.0008 64.561 22.5192C64.9092 22.9882 65.5643 22.8978 65.7922 22.3579C65.8766 22.1578 65.903 21.9341 65.9558 21.7201Z" fill="#111112"/>
<path d="M60.9001 20.3542C61.2746 20.3531 61.6449 20.3133 62.0057 20.4305C62.5744 20.6144 62.8519 21.1114 62.7727 21.7976C62.7073 22.3676 62.2537 22.8237 61.7061 22.8527C61.4434 22.8667 61.1786 22.8549 60.9001 22.8549V20.3542ZM61.1934 20.4456V20.6392C61.1934 21.2544 61.1913 21.8686 61.1934 22.4838C61.1944 22.8097 61.1438 22.772 61.4803 22.772C62.0195 22.772 62.3317 22.5128 62.4225 21.974C62.452 21.7965 62.4636 21.6104 62.4531 21.4308C62.4109 20.7048 61.9351 20.3294 61.1923 20.4456H61.1934Z" fill="#111112"/>
<path d="M55.5437 20.9048L55.2008 21.0393C55.1776 20.9629 55.1607 20.9048 55.1428 20.8457C55.0742 20.6187 54.9487 20.4424 54.706 20.3972C54.4444 20.3488 54.226 20.4424 54.0677 20.6553C53.8282 20.978 53.7649 21.3555 53.8124 21.7416C53.8409 21.9729 53.9074 22.2138 54.015 22.4182C54.207 22.7828 54.6269 22.9065 55.0099 22.7591C55.1681 22.6978 55.2588 22.5946 55.2536 22.4128C55.2483 22.231 55.2525 22.0482 55.2525 21.8653C55.2525 21.6875 55.3496 21.6119 55.5437 21.6384V22.6967C55.4023 22.7279 55.2641 22.7344 55.146 22.7871C54.3114 23.1539 53.5107 22.643 53.4832 21.7223C53.4738 21.3835 53.5254 21.064 53.7185 20.779C54.1753 20.1046 55.1597 20.1616 55.5458 20.9059L55.5437 20.9048Z" fill="#111112"/>
<path d="M90.5367 22.2686L90.8542 22.2019C90.8743 22.2589 90.8827 22.3105 90.907 22.3525C90.9756 22.4687 91.0315 22.5988 91.1254 22.6902C91.3163 22.8763 91.6571 22.8526 91.8301 22.6655C92 22.4794 91.981 22.1664 91.7763 21.9739C91.6993 21.9008 91.6075 21.8416 91.5157 21.7867C91.3417 21.6824 91.1591 21.5931 90.9872 21.4845C90.6696 21.2845 90.5715 21.0489 90.6601 20.7402C90.7371 20.4735 91.0019 20.3014 91.3364 20.3068C91.7035 20.3132 91.9768 20.4864 92.1783 20.823L91.846 20.9026C91.8027 20.7994 91.77 20.6972 91.7183 20.6068C91.6128 20.4229 91.4145 20.3466 91.2087 20.3971C91.0347 20.4391 90.9186 20.5746 90.9017 20.7607C90.8848 20.9532 90.9777 21.0909 91.1328 21.1844C91.3596 21.321 91.5928 21.4469 91.8206 21.5813C92.0137 21.6953 92.1804 21.833 92.2247 22.0771C92.288 22.4181 92.1245 22.7203 91.8048 22.8408C91.2794 23.0376 90.6949 22.7827 90.5367 22.2697V22.2686Z" fill="#111112"/>
<path d="M52.2595 20.8274L51.9398 20.8994C51.886 20.7822 51.8501 20.666 51.7847 20.5692C51.6539 20.3746 51.3827 20.3251 51.1823 20.4455C51.0072 20.551 50.9259 20.8048 51.0399 20.9823C51.1095 21.0909 51.2245 21.1791 51.3363 21.2501C51.5589 21.3931 51.7963 21.5125 52.0221 21.6513C52.2426 21.7868 52.347 21.9944 52.3291 22.2557C52.308 22.5612 52.1455 22.7612 51.8554 22.8527C51.3353 23.0183 50.7972 22.7709 50.6295 22.2729L50.9396 22.1966C50.9808 22.2987 51.0124 22.3956 51.0578 22.4848C51.1665 22.7021 51.3395 22.8247 51.5853 22.8107C51.7647 22.801 51.9145 22.7268 51.9925 22.5526C52.0706 22.3773 52.0558 22.1987 51.9356 22.0535C51.8512 21.9513 51.7393 21.8664 51.6275 21.7943C51.4471 21.6792 51.2519 21.5878 51.0705 21.4738C50.7666 21.2823 50.6706 21.0565 50.7476 20.7585C50.8172 20.4896 51.0377 20.3315 51.3732 20.3068C51.7436 20.2799 52.0991 20.4853 52.2595 20.8241V20.8274Z" fill="#111112"/>
<path d="M81.4097 20.9005C81.2915 20.9489 81.1892 20.9897 81.0731 21.037C81.0446 20.9467 81.0225 20.866 80.9929 20.7886C80.8189 20.3487 80.3462 20.2465 80.0065 20.5735C79.978 20.6004 79.9516 20.6316 79.9284 20.6628C79.5623 21.1392 79.6003 22.1266 80.0065 22.5654C80.1858 22.759 80.4074 22.8634 80.6743 22.7999C80.9317 22.7386 81.0351 22.531 81.1027 22.2976C81.1132 22.261 81.1248 22.2234 81.1396 22.1718L81.4761 22.2675C81.3073 22.6418 81.033 22.8451 80.6543 22.8881C79.9337 22.9698 79.4062 22.5192 79.3513 21.7824C79.3249 21.4275 79.3872 21.0898 79.5845 20.7875C79.9886 20.1691 80.8938 20.1379 81.3094 20.7284C81.3443 20.7778 81.3706 20.8327 81.4097 20.9005Z" fill="#111112"/>
<path d="M69.9965 20.4413L70.2486 20.2875C70.5736 21.1393 70.8954 21.9836 71.2182 22.829C70.9355 22.9 70.9207 22.8925 70.8278 22.6397C70.7614 22.458 70.6928 22.2784 70.6295 22.0955C70.6 22.0095 70.5567 21.9675 70.4596 21.9707C70.2402 21.9783 70.0208 21.9783 69.8024 21.9707C69.6979 21.9675 69.6504 22.0116 69.623 22.1063C69.5639 22.3138 69.4911 22.5171 69.4394 22.7269C69.4088 22.8516 69.355 22.8871 69.2337 22.8376C69.4605 22.2353 69.6863 21.6362 69.9121 21.0361C69.9363 20.9726 69.9712 20.9113 69.9849 20.8457C70.0102 20.7231 70.0239 20.5972 70.0419 20.4725L69.9954 20.4402L69.9965 20.4413ZM70.5272 21.8395C70.3911 21.4749 70.2666 21.1393 70.1231 20.7532C69.9785 21.1426 69.853 21.4824 69.7201 21.8395H70.5282H70.5272Z" fill="#111112"/>
<path d="M83.8542 22.8365C83.6552 22.8717 83.5243 22.8039 83.4617 22.6332C83.3932 22.4472 83.3288 22.2589 83.2486 22.0772C83.2275 22.0298 83.1558 21.9793 83.1051 21.9771C82.8804 21.9664 82.6557 21.9771 82.431 21.9696C82.3339 21.9664 82.2875 22.0062 82.2622 22.0944C82.1999 22.3063 82.1282 22.516 82.0712 22.729C82.0417 22.8387 81.9974 22.8892 81.8687 22.8333C81.9035 22.7397 81.9383 22.6462 81.9742 22.5526C82.1904 21.9793 82.4109 21.4071 82.6198 20.8317C82.6599 20.7209 82.6578 20.595 82.6757 20.4757L82.6188 20.452C82.7021 20.3993 82.7855 20.3477 82.8846 20.2853C83.2106 21.1414 83.5324 21.9879 83.8553 22.8365H83.8542ZM83.1611 21.8373C83.026 21.4738 82.9005 21.1339 82.7739 20.794L82.7348 20.8015C82.6114 21.1404 82.488 21.4792 82.3582 21.8373H83.1621H83.1611Z" fill="#111112"/>
<path d="M56.0565 20.3594H56.3571C56.3571 20.4369 56.3571 20.5036 56.3571 20.5703C56.3593 21.0715 56.3487 21.5738 56.3666 22.0739C56.3835 22.5514 56.661 22.815 57.0714 22.7827C57.3615 22.7601 57.5799 22.573 57.639 22.2847C57.659 22.1847 57.6685 22.0814 57.6685 21.9792C57.6717 21.5006 57.6696 21.022 57.6696 20.5434C57.6696 20.4821 57.6696 20.4218 57.6696 20.3605L57.7097 20.3455C57.7276 20.3702 57.7614 20.396 57.7614 20.4207C57.7614 21.0016 57.7856 21.5845 57.7487 22.1632C57.7129 22.7214 57.2391 23.0107 56.6715 22.8698C56.3086 22.7805 56.0733 22.5246 56.0607 22.1288C56.0406 21.5436 56.0554 20.9575 56.0554 20.3573L56.0565 20.3594Z" fill="#111112"/>
<path d="M74.954 21.4834H75.9109L75.9162 21.5436C75.7695 21.5834 75.6134 21.5566 75.4625 21.5609C75.3 21.5662 75.1376 21.5619 74.9582 21.5619V22.7859H76.0333V22.8376H74.647V20.3627H76.0132L76.0153 20.4068H74.9529V21.4834H74.954Z" fill="#111112"/>
<path d="M90.0397 22.8473H88.6492V20.3649H90.0102C89.6673 20.4584 89.3149 20.3982 88.9457 20.438C88.9457 20.7585 88.9425 21.0747 88.951 21.391C88.951 21.4211 89.0333 21.4716 89.0786 21.4727C89.3033 21.4813 89.5281 21.477 89.7528 21.477C89.8066 21.477 89.8593 21.477 89.9131 21.477L89.9195 21.5362C89.8731 21.5448 89.8266 21.5598 89.7792 21.5609C89.5428 21.5631 89.3076 21.5652 89.0712 21.5609C88.9773 21.5588 88.9415 21.5932 88.9425 21.69C88.9467 22.0083 88.9467 22.3278 88.9425 22.6461C88.9404 22.7526 88.9816 22.7838 89.0818 22.7817C89.3455 22.7763 89.6104 22.7795 89.8741 22.7817C89.9311 22.7817 89.987 22.7914 90.044 22.7957L90.0408 22.8484L90.0397 22.8473Z" fill="#111112"/>
<path d="M46.6457 20.3628H48.0067L48.0088 20.4112H46.9495V21.4781H47.9107V21.5448H46.9516V22.7817H48.0288V22.8355H46.6457V20.3617V20.3628Z" fill="#111112"/>
<path d="M66.9707 21.4856H67.9265L67.9307 21.5362C67.8875 21.5437 67.8442 21.5566 67.7999 21.5566C67.5752 21.5588 67.3505 21.5642 67.1258 21.5555C66.9949 21.5502 66.9485 21.5878 66.9527 21.7266C66.9622 22.0955 66.9559 22.4644 66.9559 22.8452H66.6658V20.366H68.0246V20.4101H66.9717V21.4856H66.9707Z" fill="#111112"/>
<path d="M46.2078 20.4111H45.3944V22.8452H45.0853V20.4176H44.2539L44.2571 20.366H46.2078V20.4111Z" fill="#111112"/>
<path d="M93.7598 20.4047V22.8463H93.4622V20.4187H92.6256L92.6277 20.3671H94.5742L94.5774 20.4047H93.7598Z" fill="#111112"/>
<path d="M59.0464 20.3595H59.3481V22.7838H60.4042V22.8365H59.0474V20.3595H59.0464Z" fill="#111112"/>
<path d="M43.5291 20.3595H43.8098V22.8473H43.5291V20.3595Z" fill="#111112"/>
<path d="M58.2573 20.3573H58.5411V22.844H58.2573V20.3573Z" fill="#111112"/>
<path d="M78.9399 22.8494H78.654V20.3627H78.9399V22.8494Z" fill="#111112"/>
</g>
<defs>
<clipPath id="clip0_126_812">
<rect width="105" height="27" fill="white"/>
</clipPath>
</defs>
</svg>
