<svg width="45" height="34" viewBox="0 0 45 34" fill="none" xmlns="http://www.w3.org/2000/svg">
<path d="M19.1373 24.3099C19.1392 25.7133 18.8053 27.0973 18.1625 28.3495C17.5198 29.6017 16.5864 30.6867 15.4383 31.5163C15.2825 31.6292 15.1233 31.737 14.9608 31.8397C14.8523 31.9061 14.7419 31.9725 14.6308 32.0389C13.6645 32.5951 12.6014 32.9687 11.4962 33.1404C10.4496 33.3026 9.3824 33.2846 8.34205 33.0873C8.09329 33.0399 7.84834 32.9828 7.60722 32.916C7.42761 32.8655 7.24936 32.81 7.07245 32.7493H7.06842C5.93278 32.355 4.88788 31.7423 3.99437 30.9467C3.10087 30.1511 2.37653 29.1884 1.86342 28.1146C1.11648 26.7202 0.679354 25.1652 0.510973 23.5842C0.510973 23.5842 -1.80258 11.4789 12.6566 2.96974C12.6566 2.96974 15.7272 1.2812 17.5909 0.815073C17.6858 0.791169 17.7781 0.770584 17.8664 0.753984C17.8974 0.753984 17.9283 0.75 17.96 0.75C18.1869 0.749848 18.4078 0.821556 18.5902 0.954553C18.7727 1.08755 18.9069 1.2748 18.9732 1.48871C19.0396 1.70263 19.0344 1.93188 18.9586 2.1427C18.8827 2.35351 18.7402 2.53473 18.552 2.65966C18.5509 2.65937 18.5497 2.65937 18.5486 2.65966C18.4523 2.72606 18.3634 2.78582 18.2914 2.83628C17.8718 3.12977 17.4454 3.41329 17.017 3.69549C16.0741 4.31434 15.1312 4.92389 14.236 5.60847C13.5989 6.0969 12.9893 6.61936 12.4101 7.17351C12.1308 7.44176 11.8592 7.7171 11.5952 7.99952C10.9009 8.73971 10.2863 9.54879 9.76115 10.4138C9.32471 11.1409 8.82967 11.8892 9.11995 12.7557C9.56515 14.0837 11.1405 14.917 12.3428 15.4675C12.8877 15.7178 13.4265 15.9628 13.9511 16.2318C14.4723 16.4753 14.9685 16.7677 15.4329 17.1049C16.221 17.6772 16.9107 18.3707 17.4757 19.1586C18.5542 20.665 19.1321 22.4641 19.1299 24.3079L19.1373 24.3099Z" fill="white"/>
<path d="M44.125 24.3099C44.1269 25.7133 43.793 27.0973 43.1502 28.3495C42.5075 29.6017 41.5741 30.6867 40.426 31.5163C40.2702 31.6292 40.111 31.737 39.9485 31.8397C39.84 31.9061 39.7296 31.9725 39.6185 32.0389C38.6522 32.5951 37.5891 32.9687 36.4839 33.1404C35.4373 33.3026 34.3701 33.2846 33.3298 33.0873C33.081 33.0399 32.836 32.9828 32.5949 32.916C32.4153 32.8655 32.2371 32.81 32.0601 32.7493H32.0561C30.9205 32.355 29.8756 31.7423 28.9821 30.9467C28.0886 30.1511 27.3642 29.1884 26.8511 28.1146C26.1042 26.7202 25.6671 25.1652 25.4987 23.5842C25.4987 23.5842 23.1851 11.4789 37.6443 2.96974C37.6443 2.96974 40.7149 1.2812 42.5786 0.815073C42.6735 0.791169 42.7658 0.770584 42.8541 0.753984C42.8851 0.753984 42.916 0.75 42.9477 0.75C43.1746 0.749848 43.3955 0.821556 43.5779 0.954553C43.7604 1.08755 43.8946 1.2748 43.9609 1.48871C44.0273 1.70263 44.0221 1.93188 43.9463 2.1427C43.8704 2.35351 43.7279 2.53473 43.5397 2.65966C43.5386 2.65937 43.5374 2.65937 43.5363 2.65966C43.44 2.72606 43.3511 2.78582 43.2791 2.83628C42.8595 3.12977 42.4331 3.41329 42.0047 3.69549C41.0618 4.31434 40.1189 4.92389 39.2237 5.60847C38.5866 6.0969 37.977 6.61936 37.3978 7.17351C37.1185 7.44176 36.8469 7.7171 36.5829 7.99952C35.8886 8.73971 35.274 9.54879 34.7489 10.4138C34.3124 11.1409 33.8174 11.8892 34.1077 12.7557C34.5529 14.0837 36.1282 14.917 37.3305 15.4675C37.8754 15.7178 38.4142 15.9628 38.9388 16.2318C39.46 16.4753 39.9562 16.7677 40.4206 17.1049C41.2087 17.6772 41.8984 18.3707 42.4634 19.1586C43.5419 20.665 44.1198 22.4641 44.1176 24.3079L44.125 24.3099Z" fill="white"/>
</svg>
